<svg xmlns="http://www.w3.org/2000/svg" width="320.016" height="182.51" viewBox="0 0 320.016 182.51">
  <g id="Group_419" data-name="Group 419" transform="translate(-914 -235.466)">
    <g id="Group_415" data-name="Group 415" transform="translate(-686.256 -372.876)">
      <g id="Group_57" data-name="Group 57" transform="translate(1600.256 634.573)">
        <path id="Path_205" data-name="Path 205" d="M1621.119,328.768s-26.808-33.242-10.723-64.875,46.646-24.127,89.539-56.3c52.072-39.054,88.636-41.2,135.113-24.127,26.272,9.651,30.561,49.327,72.382,73.99,37.7,22.234,6.97,60.05-12.868,65.948s-33.242,5.9-33.242,5.9Z" transform="translate(-1605.256 -173.302)" fill="#e7f3fe"/>
        <path id="Path_208" data-name="Path 208" d="M1914.78,839.768H1638.9a2.128,2.128,0,0,1,0-4.256H1914.78a2.128,2.128,0,1,1,0,4.256Z" transform="translate(-1629.535 -683.489)" fill="#2e5b9a"/>
      </g>
    </g>
    <g id="Group_414" data-name="Group 414" transform="translate(869.05 72.74)">
      <path id="Path_326" data-name="Path 326" d="M227.274,227.956l8.871,22.126,14.585-9.005c-.3-2.208,1.1-4.349,2.469-6.191.374-.443,2.831-4.213,3.357-2.693.318.953-1.813,3.541-2.2,4.365.011.006.019.014.032.021,1.615-1.536,3.748-3.949,6.234-3.594a6.869,6.869,0,0,1,3.3,1.8,3.218,3.218,0,0,1,.981,1.154c.84,2.026-2.6,3.405-3.813,4.308-.724.594-1.449,1.188-2.249,1.743-1.444,1.087-3.868,3.145-5.811,2.6-1.016,1.06-2.985,2.832-5.219,4.768-.689.72-1.4,1.448-2.154,2.167-2.96,2.831-8.028,9.268-12.834,6.6-3.373-1.87-5.492-7.708-6.752-11.13-.421-1.144-.787-2.317-1.112-3.491l-4.716-9.468-5.88-1.87Z" transform="translate(-40.655 -27.121)" fill="#8e6b42"/>
      <g id="Group_130" data-name="Group 130" transform="translate(204.788 205.759)">
        <g id="Group_129" data-name="Group 129">
          <path id="Path_327" data-name="Path 327" d="M291.832,264.355l.056-.05c1.786-1.156,4.76-4.5,5.954-5.735,2.984-3.095,8.263-8.079,11-11.39,0,0-2.613-10.187-3.7-7.056-.584,1.681-4.413,6.252-7.833,10.125h0c-1.39,1.574-2.709,3.028-3.718,4.132l-2.914,3.089-2.779-3.095-3.127-3.344c-2.328-2.527-4.378-4.8-4.378-4.8-2.121-3.487-3.481-7.332-4.01-6.465a5.085,5.085,0,0,0,.64,2.773c-1.3-2.075-6.783-7.334-6.238-5.922.223,1.372,1.364,2.2,2.179,3.442-.838-1.062-3.316-3.1-3.639-2.633a10.551,10.551,0,0,0,2.831,3.62c-1.075-.7-3.635-3.018-3.915-2.415a20.291,20.291,0,0,0,2.671,3.053,12.483,12.483,0,0,0-3.351-2.171c1.418,2.665,8.124,7.92,9.409,8.478a8.571,8.571,0,0,1,1.022.532c2.648,4.892,5.568,10,9.3,14.152.972,1.076,3.21,2.593,4.612,1.58.266-.022.494-.346.692-.863.012-.024.027-.043.038-.069" transform="translate(-267.559 -236.384)" fill="#eab8a4"/>
        </g>
      </g>
      <g id="Group_170" data-name="Group 170" transform="translate(234.646 172.432)">
        <g id="Group_147" data-name="Group 147" transform="translate(4.386)">
          <g id="Group_131" data-name="Group 131" transform="translate(0 0.004)">
            <path id="Path_328" data-name="Path 328" d="M340.262,209.729c-2.817-.475-5.753-.917-8.284-2.318a8.831,8.831,0,0,1-4.635-7.321,4.465,4.465,0,0,0,.02,2.593,9.081,9.081,0,0,1-1.169-3.306c-.157-1.938.615-4.193.984-6.1.665-2.655.8-5.346,2.324-7.719,2.257-3.514,6.148-6.218,10.443-6.218.6,0,1.139.029,1.631.074,3.049-.108,5.453-.252,8.34,1.612,5.173,3.341,6.93,7.913,7.225,13.844a29.237,29.237,0,0,1-.208,7.624c-.518,2.44-2.361,3.929-4.553,4.969a23.94,23.94,0,0,1-6.317,1.866A17.242,17.242,0,0,1,340.262,209.729Z" transform="translate(-326.174 -179.345)" fill="#44280f"/>
          </g>
          <g id="Group_133" data-name="Group 133" transform="translate(3.698 3.207)">
            <g id="Group_132" data-name="Group 132">
              <path id="Path_329" data-name="Path 329" d="M335.193,198.086c.158.247.336.5.529.748.061-1.626-.325-5.522.138-7.789,4.173-.122,1.691-7.917,12.953-5.875,0,0,1.889,1.393,2.554,1.826.994.647,1.541,3,1.884,4.109a17.688,17.688,0,0,1,.723,7.642c.144-.2.283-.417.414-.63,2.149.23,2.611,1.736,1.141,3.889-.578.842-1.067.626-1.768.681-.244,2.017-.974,4.967-2.756,6.07a19.664,19.664,0,0,1-3.778,1.427c-.244,3.829-.152,4.37.217,4.51,2.174.828,4.066.772,6.185,1.328-.1,4.095-5.185,7.235-9.036,6.245-3.849.99-8.049-.9-8.151-4.991,4.07-2.2,4.517-1.293,5.187-3.523a17.957,17.957,0,0,0,.156-3.714,19.7,19.7,0,0,1-3.748-1.494c-1.779-1.1-2.369-3.84-2.611-5.857-.7-.056-1.941.026-2.406-.882C331.767,199.346,332.9,197.76,335.193,198.086Z" transform="translate(-332.503 -184.829)" fill="#f9cdbb"/>
            </g>
          </g>
          <g id="Group_144" data-name="Group 144" transform="translate(9.311 10.212)">
            <g id="Group_135" data-name="Group 135" transform="translate(10.323)">
              <g id="Group_134" data-name="Group 134">
                <path id="Path_330" data-name="Path 330" d="M363.235,199.057s-.057-.048-.145-.136a4.632,4.632,0,0,0-.351-.355,2.956,2.956,0,0,1-.221-.2c-.077-.07-.179-.129-.262-.2a1.885,1.885,0,0,0-.281-.2,3.2,3.2,0,0,0-.3-.19,3.685,3.685,0,0,0-.628-.287,1.545,1.545,0,0,0-.306-.1,2.482,2.482,0,0,1-.294-.074,1.328,1.328,0,0,0-.261-.04l-.214-.03c-.121-.019-.2-.037-.2-.037a1.514,1.514,0,0,1,.165-.106,2.194,2.194,0,0,1,.207-.107.806.806,0,0,1,.285-.1,1.922,1.922,0,0,1,.766-.034,1.814,1.814,0,0,1,.428.1l.416.184c.131.074.245.179.364.263a1.418,1.418,0,0,1,.3.307,2.072,2.072,0,0,1,.395.659,1.5,1.5,0,0,1,.116.5C363.235,198.983,363.235,199.057,363.235,199.057Z" transform="translate(-359.779 -196.819)" fill="#3a210d"/>
              </g>
            </g>
            <g id="Group_137" data-name="Group 137" transform="translate(0 0.009)">
              <g id="Group_136" data-name="Group 136">
                <path id="Path_331" data-name="Path 331" d="M345.781,197.471s-.074.006-.207.008-.318-.024-.521-.011c-.1.008-.209.013-.317.012a2.3,2.3,0,0,0-.342.031,2.381,2.381,0,0,0-.357.048l-.354.081-.326.128a1.211,1.211,0,0,0-.3.162,1.08,1.08,0,0,0-.266.187c-.071.074-.151.141-.227.207s-.118.145-.175.206-.1.126-.141.175c-.081.1-.137.159-.137.159a1.519,1.519,0,0,1,0-.2c0-.066.006-.148.017-.242a.971.971,0,0,1,.069-.311c.049-.105.1-.224.174-.345a1.018,1.018,0,0,1,.278-.339,1.356,1.356,0,0,1,.374-.289c.147-.067.294-.144.447-.2l.473-.082a1.6,1.6,0,0,1,.452.011,2.318,2.318,0,0,1,.774.2,1.962,1.962,0,0,1,.452.279C345.723,197.421,345.781,197.471,345.781,197.471Z" transform="translate(-342.11 -196.834)" fill="#3a210d"/>
              </g>
            </g>
            <g id="Group_139" data-name="Group 139" transform="translate(1.636 5.953)">
              <g id="Group_138" data-name="Group 138">
                <path id="Path_332" data-name="Path 332" d="M346.364,208.11c0,.607-.327,1.1-.726,1.1s-.727-.495-.727-1.1.323-1.1.727-1.1S346.364,207.5,346.364,208.11Z" transform="translate(-344.911 -207.009)"/>
              </g>
            </g>
            <g id="Group_141" data-name="Group 141" transform="translate(10.865 5.953)">
              <g id="Group_140" data-name="Group 140">
                <path id="Path_333" data-name="Path 333" d="M362.159,208.109c0,.608-.324,1.1-.726,1.1s-.725-.495-.725-1.1.325-1.1.725-1.1S362.159,207.5,362.159,208.109Z" transform="translate(-360.708 -207.009)"/>
              </g>
            </g>
            <g id="Group_142" data-name="Group 142" transform="translate(3.984 12.601)">
              <path id="Path_334" data-name="Path 334" d="M348.929,218.387c0,1.754,5.007,1.754,5.007.057Z" transform="translate(-348.929 -218.387)" fill="#8e3030"/>
            </g>
            <g id="Group_143" data-name="Group 143" transform="translate(5.042 9.269)">
              <path id="Path_335" data-name="Path 335" d="M352.256,212.684a2.676,2.676,0,0,0-.824.134,1.454,1.454,0,0,0-.406.211.731.731,0,0,0-.19.222.893.893,0,0,0-.088.274.675.675,0,0,0,.2.573.9.9,0,0,0,.461.217,1.38,1.38,0,0,0,.852-.121,5.749,5.749,0,0,1-.728-.27.65.65,0,0,1-.225-.171.171.171,0,0,1-.035-.16c.019-.1.014-.116.085-.189a1.9,1.9,0,0,1,.265-.221A4.489,4.489,0,0,0,352.256,212.684Z" transform="translate(-350.74 -212.684)" fill="#e8a07d"/>
            </g>
          </g>
          <g id="Group_145" data-name="Group 145" transform="translate(4.97)">
            <path id="Path_336" data-name="Path 336" d="M335.692,185.725a9.029,9.029,0,0,1,4.687-4.934c2.373-1.012,2.1-1.449,4.7-1.449a10.571,10.571,0,0,1,6.871,1.794,23.236,23.236,0,0,1,1.911,1.751c.143,1.393,4.7,7.589,1.021,13.577-.136-.227.315-6.4-1.932-9.548a18.132,18.132,0,0,0-1.974-2.462c.616,1.518,1.189,2.834-.65,4.373.4-.337.04-2.27-.075-2.7a8.839,8.839,0,0,1-2.53,4.431,7.665,7.665,0,0,1-4.706,2.622,10.644,10.644,0,0,1,1.176-1.653,12.3,12.3,0,0,1-4.8,1.656,5.235,5.235,0,0,1,.912-1.362c-2.6,1.34-3,3.747-3.58,6.24.115-.5-.963-2.083-1.166-2.576A13.107,13.107,0,0,1,335.692,185.725Z" transform="translate(-334.681 -179.339)" fill="#44280f"/>
          </g>
          <g id="Group_146" data-name="Group 146" transform="translate(6.31 16.693)">
            <path id="Path_337" data-name="Path 337" d="M364.474,212.578c1.146-1.2,2.946-5.309,3-4.581.053.261-1.175,4.06-2.113,4.945a2.322,2.322,0,0,1-.365.313Z" transform="translate(-348.408 -207.911)" fill="#5390a5"/>
            <path id="Path_338" data-name="Path 338" d="M364.745,218.573c.729,0,2.239-3.918,2.423-3.234s-1.642,4.074-2.318,4.284Z" transform="translate(-348.521 -210.966)" fill="#5390a5"/>
            <path id="Path_339" data-name="Path 339" d="M340.995,213.356c-1.282-1.051-4.057-5.4-4.02-4.673-.021.265,2.147,4.378,3.185,5.143a2.279,2.279,0,0,0,.4.267Z" transform="translate(-336.974 -208.198)" fill="#5390a5"/>
            <path id="Path_340" data-name="Path 340" d="M340.923,218.572c-.724.088-3.316-3.935-3.416-3.234s2.741,4.162,3.439,4.287Z" transform="translate(-337.195 -210.965)" fill="#5390a5"/>
            <path id="Path_341" data-name="Path 341" d="M354.287,213.758c-1.095-.521-2.345-.782-3.439-1.2a9.257,9.257,0,0,0-3.126-.834,5.858,5.858,0,0,0-3.178,1.407c-1.094.833-2.709,1.406-2.709,2.968,0,2.293,2.448,4.9,4.636,5.627a7.768,7.768,0,0,0,6.356-.677c1.407-.781,2.553-1.459,3.022-3.075.313-1.094.259-2.97-.677-3.8Z" transform="translate(-338.995 -209.497)" fill="#75b5d1"/>
            <path id="Path_342" data-name="Path 342" d="M354.631,217.163a2.962,2.962,0,0,1-1.081.36,10.065,10.065,0,0,1-1.614.291,20.234,20.234,0,0,1-2.506.138c-.652-.034-1.286-.138-1.938-.188a6.862,6.862,0,0,1-1.683-.395" transform="translate(-340.648 -211.758)" fill="none" stroke="#5390a5" stroke-miterlimit="10" stroke-width="1"/>
            <path id="Path_343" data-name="Path 343" d="M354.9,220.717a6.1,6.1,0,0,1-2.746,1c-1.012.018-2.009.121-3.021.155a12.239,12.239,0,0,1-2.368-.24,9.68,9.68,0,0,1-2.162-.72" transform="translate(-340.148 -213.235)" fill="none" stroke="#5390a5" stroke-miterlimit="10" stroke-width="1"/>
            <path id="Path_344" data-name="Path 344" d="M355.055,225.012a2.965,2.965,0,0,1-.927.394,7.157,7.157,0,0,1-1.167.378,10.848,10.848,0,0,1-3.329-.1,2.69,2.69,0,0,1-.722-.223c-.377-.172-.772-.292-1.133-.48" transform="translate(-341.466 -215.007)" fill="none" stroke="#5390a5" stroke-miterlimit="10" stroke-width="1"/>
          </g>
        </g>
        <g id="Group_148" data-name="Group 148" transform="translate(32.252 50.769)">
          <path id="Path_345" data-name="Path 345" d="M373.871,266.239" transform="translate(-373.871 -266.239)" fill="#e094b3"/>
        </g>
        <g id="Group_150" data-name="Group 150" transform="translate(32.358 52.478)">
          <g id="Group_149" data-name="Group 149">
            <path id="Path_346" data-name="Path 346" d="M374.052,269.163" transform="translate(-374.052 -269.163)" fill="#e094b3"/>
          </g>
        </g>
        <g id="Group_159" data-name="Group 159" transform="translate(2.217 33.402)">
          <g id="Group_153" data-name="Group 153" transform="translate(17.405 5.349)">
            <g id="Group_152" data-name="Group 152">
              <g id="Group_151" data-name="Group 151">
                <path id="Path_347" data-name="Path 347" d="M352.258,245.668h0l0,0Z" transform="translate(-352.254 -245.668)" fill="#8a82c3"/>
              </g>
            </g>
          </g>
          <path id="Path_348" data-name="Path 348" d="M329.094,249.771A12.111,12.111,0,0,1,325,248.409a7.776,7.776,0,0,1-2.54-2.11,18.986,18.986,0,0,1,2.846-5.033c1.154-1.469,2.633-3.05,3.415-3.282a20,20,0,0,1,3.579-.5,19.207,19.207,0,0,0,4.474-.97,2.21,2.21,0,0,0,1.055,1.8,6.813,6.813,0,0,0,5.053.233c1.8-.54,1.236-1.857,1.476-1.845,1.1.057,7.384,1.824,7.518,1.868.019,0,.438.441,0,0l.89,6.235-1.383,11.237c-.078,2.7-.96,9.494-.96,9.494s3.818,9.449,3.818,11.588.806,14.118.3,15.469-11.877.959-11.877.959L339.2,282.121l-2.347,1.258-.1,8.423-11.74.827s-1.206-13.259.724-18.03,3.716-9.255,3.716-9.255c.535-2.276.063-5.459-.019-8.151C329.412,256.431,329.178,249.783,329.094,249.771Z" transform="translate(-322.462 -236.512)" fill="#353d59"/>
          <g id="Group_154" data-name="Group 154" transform="translate(29.416 16.254)">
            <path id="Path_349" data-name="Path 349" d="M372.812,264.334" transform="translate(-372.812 -264.334)" fill="#e094b3"/>
          </g>
          <g id="Group_158" data-name="Group 158" transform="translate(10.3 1.64)">
            <g id="Group_155" data-name="Group 155" transform="translate(0 2.407)">
              <path id="Path_350" data-name="Path 350" d="M340.444,262.385l.084.082,2.67-3.3c.924-1.175,2.129-2.728,3.394-4.4,3.116-4.124,6.587-8.971,7.042-10.691.846-3.2,4.226,6.753,4.226,6.753-2.478,3.511-7.363,8.883-10.1,12.195-.775.936-2.21,3.008-3,3.928-.485.566-4.91-2.641-4.654-3.574C340.129,263.276,340.476,262.417,340.444,262.385Z" transform="translate(-340.092 -243.438)" fill="#f9cdbb"/>
            </g>
            <g id="Group_157" data-name="Group 157" transform="translate(10.724)">
              <g id="Group_156" data-name="Group 156">
                <path id="Path_351" data-name="Path 351" d="M365.621,239.344a3.235,3.235,0,0,0-2.353.63c-1.805,1.322-3.144,3.181-4.819,4.663,1.466,3.6,5.171,5.131,7.549,5.5a54.762,54.762,0,0,0,3.148-6.436A4.241,4.241,0,0,0,365.621,239.344Z" transform="translate(-358.448 -239.318)" fill="#5a6482"/>
              </g>
            </g>
          </g>
          <path id="Path_352" data-name="Path 352" d="M334.475,240.643c-.966,3.162-.484,7.2-.488,10.253" transform="translate(-327.205 -238.23)" fill="none" stroke="#22283a" stroke-miterlimit="10" stroke-width="1"/>
        </g>
        <g id="Group_169" data-name="Group 169" transform="translate(0 62.235)">
          <g id="Group_166" data-name="Group 166" transform="translate(0 17.031)">
            <g id="Group_162" data-name="Group 162" transform="translate(22.309)">
              <path id="Path_353" data-name="Path 353" d="M357.033,345.179c-.2-7.333-.446-23.934.559-30.163l11.738,10.215c-.231,2.871-1.477,12.582-2.461,19.954-.545,4.078-1.011,7.444-1.18,8.533a36.944,36.944,0,0,0,.124,8.9c1,5.986-2.576,25.715-3.115,31.619-.021,1.389-.474,2.83,1.118,3.935.634.44,5.09,2.463,5.93,3.046l.145.085a.08.08,0,0,0-.023,0c.786.565,1.159,1.064.488,1.306-1.148.459-9.808-.816-11.838-1.585a4.12,4.12,0,0,1-.242-1.44c-.139-.057-.278-.11-.417-.169,0,0-.039-4.945,0-6.688-.046-2.929.269-27.889.154-28.6C357.883,362.289,357.278,354.119,357.033,345.179Z" transform="translate(-356.852 -315.016)" fill="#f9cdbb"/>
              <g id="Group_160" data-name="Group 160" transform="translate(1.008 84.4)">
                <path id="Path_354" data-name="Path 354" d="M370.61,461.365a23.006,23.006,0,0,1-12.032-1.884v2.405s13.338,3.691,16.322,1.947C374.9,463.833,375.564,463.183,370.61,461.365Z" transform="translate(-358.578 -459.481)" fill="#380e16"/>
              </g>
              <g id="Group_161" data-name="Group 161" transform="translate(9.65 85.51)">
                <path id="Path_355" data-name="Path 355" d="M379,462.468a9.137,9.137,0,0,0,1.92-.113.269.269,0,0,0,.133-.176.209.209,0,0,0-.126-.282,8.889,8.889,0,0,0-.961-.421c-.605-.227-.951-.013-1.736.326a6.247,6.247,0,0,1,.862.51Z" transform="translate(-375.39 -461.381)" fill="#681925"/>
                <path id="Path_356" data-name="Path 356" d="M376.679,463c-.5.127-1.388.7-1.875.663a2.676,2.676,0,0,1-1.434-1.257,4.693,4.693,0,0,1,2.257-.093Z" transform="translate(-373.369 -461.729)" fill="#681925"/>
                <path id="Path_357" data-name="Path 357" d="M378.87,462.688c-.285.042-.338.089-1.116.268a5.449,5.449,0,0,1-1.115-.844,1.761,1.761,0,0,1,1.164-.258c.046,0,.121.07.161.091.06.036.121.07.181.106a1.936,1.936,0,0,1,.332.247C378.609,462.426,378.738,462.558,378.87,462.688Z" transform="translate(-374.728 -461.575)" fill="#af7e1c"/>
              </g>
            </g>
            <g id="Group_165" data-name="Group 165" transform="translate(0 3.205)">
              <path id="Path_358" data-name="Path 358" d="M338.343,347.46c.2-7.333.453-18.99.453-26.958l-12.753,7.01c.232,2.871,1.476,12.582,2.462,19.954.544,4.078,1.01,7.444,1.179,8.533a36.942,36.942,0,0,1-.124,8.9c-1,5.986,2.578,25.715,3.116,31.619.022,1.389.474,2.83-1.119,3.935-.634.44-5.089,2.462-5.93,3.046l-.146.085a.076.076,0,0,1,.023,0c-.785.565-1.158,1.064-.488,1.306,1.149.459,9.809-.816,11.838-1.585a4.158,4.158,0,0,0,.242-1.44c.139-.057.279-.11.416-.169,0,0,.039-4.945,0-6.688.047-2.929-.266-27.889-.154-28.6C337.493,364.57,338.1,356.4,338.343,347.46Z" transform="translate(-321.163 -320.502)" fill="#f9cdbb"/>
              <g id="Group_163" data-name="Group 163" transform="translate(0 81.195)">
                <path id="Path_359" data-name="Path 359" d="M322.987,461.365a23.005,23.005,0,0,0,12.031-1.884v2.405s-13.337,3.691-16.322,1.947C318.7,463.833,318.033,463.183,322.987,461.365Z" transform="translate(-318.666 -459.481)" fill="#380e16"/>
              </g>
              <g id="Group_164" data-name="Group 164" transform="translate(2.035 82.305)">
                <path id="Path_360" data-name="Path 360" d="M324.217,462.468a9.139,9.139,0,0,1-1.92-.113.267.267,0,0,1-.133-.176.209.209,0,0,1,.126-.282,8.832,8.832,0,0,1,.96-.421c.606-.227.951-.013,1.736.326a6.238,6.238,0,0,0-.861.51Z" transform="translate(-322.149 -461.381)" fill="#681925"/>
                <path id="Path_361" data-name="Path 361" d="M326.2,463c.5.127,1.389.7,1.876.663a2.674,2.674,0,0,0,1.434-1.257,4.7,4.7,0,0,0-2.257-.093Z" transform="translate(-323.833 -461.729)" fill="#681925"/>
                <path id="Path_362" data-name="Path 362" d="M324.774,462.688c.286.042.339.089,1.118.268a5.418,5.418,0,0,0,1.114-.844,1.76,1.76,0,0,0-1.164-.258c-.044,0-.12.07-.159.091-.061.036-.123.07-.183.106a2,2,0,0,0-.331.247C325.035,462.426,324.907,462.558,324.774,462.688Z" transform="translate(-323.24 -461.575)" fill="#af7e1c"/>
              </g>
            </g>
          </g>
          <g id="Group_168" data-name="Group 168" transform="translate(2.804)">
            <path id="Path_363" data-name="Path 363" d="M350.841,286.053a49.13,49.13,0,0,1-20.968-.189s-6.079,9.2-6.4,18.409c-.156,4.481,2.985,59.781,2.985,59.781.408,1.826,12.641,1.368,12.594.684s1.234-49.663,1.234-49.663l2.686,49.965s6.522,1.253,11.881,0c0,0,2.27-54.889,1.889-60.374A45.856,45.856,0,0,0,350.841,286.053Z" transform="translate(-323.465 -285.864)" fill="#a4bcd8"/>
            <g id="Group_167" data-name="Group 167" transform="translate(1.39 1.229)">
              <path id="Path_364" data-name="Path 364" d="M355.823,291.641s-12.516,3.1-24.7,0" transform="translate(-328.037 -289.495)" fill="none" stroke="#5f79a0" stroke-miterlimit="10" stroke-width="1"/>
              <path id="Path_365" data-name="Path 365" d="M352.2,287.967c0,7.678-.181,20.08-.084,27.367" transform="translate(-336.756 -287.967)" fill="none" stroke="#5f79a0" stroke-miterlimit="10" stroke-width="1"/>
              <path id="Path_366" data-name="Path 366" d="M354.815,334.588c-3.341.488-7.708.55-10.835,1.957" transform="translate(-333.384 -307.351)" fill="none" stroke="#5f79a0" stroke-miterlimit="10" stroke-width="1"/>
              <path id="Path_367" data-name="Path 367" d="M347.661,293.93c0,2.8-.178,6.973.043,10.177.157,2.271.122,4.477,2.674,5.018" transform="translate(-334.887 -290.446)" fill="none" stroke="#5f79a0" stroke-miterlimit="10" stroke-width="1"/>
              <path id="Path_368" data-name="Path 368" d="M373.719,299.193c-1.906.861-2.527.613-4.455.861-.068-2.464-.6-4.85-.6-7.37" transform="translate(-343.648 -289.928)" fill="none" stroke="#5f79a0" stroke-miterlimit="10" stroke-width="1"/>
              <path id="Path_369" data-name="Path 369" d="M331.817,293.348a45.63,45.63,0,0,1-1.762,7.175c-1.08.063-3.766-.165-4.211-.731" transform="translate(-325.844 -290.204)" fill="none" stroke="#a06f18" stroke-miterlimit="10" stroke-width="1"/>
            </g>
          </g>
        </g>
      </g>
      <g id="Group_274" data-name="Group 274" transform="translate(184.225 166.935)">
        <path id="Path_370" data-name="Path 370" d="M279.34,224.265c-.343-.481-.585-.435-1.13-.435a31.446,31.446,0,0,0-4.355.459c-1.632.226-3.3.016-4.924.358-.394.082-.744.047-.921.36a5.125,5.125,0,0,0-.338,1.812,2.934,2.934,0,0,0,.782,2.161,4.628,4.628,0,0,0,2.238,1,11.37,11.37,0,0,0,6.366-.129,3.907,3.907,0,0,0,2.653-2.389A4.22,4.22,0,0,0,279.34,224.265Z" transform="translate(-247.043 -192.34)" fill="#babebf"/>
        <g id="Group_257" data-name="Group 257">
          <g id="Group_188" data-name="Group 188" transform="translate(16.94)">
            <g id="Group_171" data-name="Group 171">
              <path id="Path_371" data-name="Path 371" d="M272.748,198.409a14.914,14.914,0,0,0,8.028-7.359c2.283-4.515,3.7-11.627,1.343-16.216-2.8-5.246-10.8-5.868-16.04-3.809-4.584,1.8-4.705,6.459-4.705,10.175,0,2.769.92,3.661,1.288,6.355Z" transform="translate(-261.364 -169.93)" fill="#605654"/>
              <path id="Path_372" data-name="Path 372" d="M278.414,192.741c-.016-.02-.026-.041-.042-.061.013-.226.029-.452.043-.672.043-.669.3-5.827.428-7.73.075-1.106.436-2.419-.119-3.449-.591-1.1-2.264-.055-3.154.261a16.782,16.782,0,0,1-10.007,0,3.371,3.371,0,0,0-2.61-.13,2.718,2.718,0,0,0-1.239,1.827c-.258.094-.342.426-.355,1.319-.018,1.388.072,2.763.13,4.157.087,2.11-.071,3.994-.106,7.165-.025,2.333.616,4.682,1.982,6.023,1.347,1.322,2.516,1.551,4.52,1.894-.006.549.1,2.7.093,2.912-.012.936-1.6,1.252-3.094,2.131a4.861,4.861,0,0,0,3.356,1l.521.76c1.471.853,2.8.077,3.713-.823a8.753,8.753,0,0,0,3.386-1.648c-1.444-.347-2.22-.628-2.651-1.182a19.359,19.359,0,0,1-.047-3.377c1.778-1.019,3.571-2,4.26-4.032.131-.39.237-.791.333-1.2.283-.413.473-.624,1.41-.79a3.589,3.589,0,0,0,3.149-2.442C283.334,191.237,280.16,189.953,278.414,192.741Z" transform="translate(-261.357 -174.257)" fill="#f9cdbb"/>
            </g>
            <g id="Group_187" data-name="Group 187" transform="translate(1.707 9.647)">
              <g id="Group_174" data-name="Group 174" transform="translate(9.359)">
                <g id="Group_173" data-name="Group 173">
                  <g id="Group_172" data-name="Group 172">
                    <path id="Path_373" data-name="Path 373" d="M283.972,188.468a2.953,2.953,0,0,0-3.674-1.893Z" transform="translate(-280.298 -186.443)"/>
                  </g>
                </g>
              </g>
              <g id="Group_177" data-name="Group 177" transform="translate(0 0.311)">
                <g id="Group_176" data-name="Group 176">
                  <g id="Group_175" data-name="Group 175">
                    <path id="Path_374" data-name="Path 374" d="M267.083,187.081a2.179,2.179,0,0,0-2.8,1.558Z" transform="translate(-264.278 -186.975)"/>
                  </g>
                </g>
              </g>
              <g id="Group_180" data-name="Group 180" transform="translate(3.172 14.129)">
                <g id="Group_179" data-name="Group 179">
                  <g id="Group_178" data-name="Group 178">
                    <path id="Path_375" data-name="Path 375" d="M275.457,210.685s-.067.077-.194.205a3.524,3.524,0,0,1-.586.463,4.684,4.684,0,0,1-1.522.658,5.617,5.617,0,0,1-.621.105,4.353,4.353,0,0,1-.641,0,2.885,2.885,0,0,1-.619-.1,2.391,2.391,0,0,1-.984-.522,1.472,1.472,0,0,1-.3-.323,1.154,1.154,0,0,1-.175-.283c-.077-.169-.111-.262-.111-.262Z" transform="translate(-269.708 -210.627)" fill="#fff"/>
                  </g>
                </g>
              </g>
              <g id="Group_183" data-name="Group 183" transform="translate(1.826 6.049)">
                <g id="Group_182" data-name="Group 182">
                  <g id="Group_181" data-name="Group 181">
                    <path id="Path_376" data-name="Path 376" d="M268.774,197.757c0,.533-.307.963-.685.963s-.685-.429-.685-.963.306-.959.685-.959S268.774,197.228,268.774,197.757Z" transform="translate(-267.403 -196.798)"/>
                  </g>
                </g>
              </g>
              <g id="Group_186" data-name="Group 186" transform="translate(10.015 6.049)">
                <g id="Group_185" data-name="Group 185">
                  <g id="Group_184" data-name="Group 184">
                    <path id="Path_377" data-name="Path 377" d="M282.786,197.757c0,.533-.306.963-.684.963s-.681-.429-.681-.963.3-.959.681-.959S282.786,197.228,282.786,197.757Z" transform="translate(-281.421 -196.798)"/>
                  </g>
                </g>
              </g>
              <path id="Path_378" data-name="Path 378" d="M272.045,194.858a8.755,8.755,0,0,1,.04,2.769,6.9,6.9,0,0,1-1.037,2.559,1.02,1.02,0,0,0-.185.543.656.656,0,0,0,.28.462,1.888,1.888,0,0,0,2.267-.057" transform="translate(-267.016 -189.942)" fill="none" stroke="#e8a07d" stroke-miterlimit="10" stroke-width="1"/>
            </g>
          </g>
          <g id="Group_189" data-name="Group 189" transform="translate(16.941 17.791)">
            <path id="Path_379" data-name="Path 379" d="M283.995,203.972c1.146-1.2,4.268-4.205,4.32-3.476.053.26-2.5,2.956-3.434,3.841a2.243,2.243,0,0,1-.365.313Z" transform="translate(-270.77 -200.383)" fill="#5390a5"/>
            <path id="Path_380" data-name="Path 380" d="M284.268,210.585c.729,0,4.452-2.152,3.723-1.058a13.191,13.191,0,0,1-3.619,2.107Z" transform="translate(-270.884 -204.056)" fill="#5390a5"/>
            <path id="Path_381" data-name="Path 381" d="M273.809,204.385c-1.095-.521-2.344-.781-3.439-1.2a9.278,9.278,0,0,0-3.125-.834,5.852,5.852,0,0,0-3.179,1.406c-1.094.834-2.708,1.407-2.708,2.97,0,2.293,2.447,4.9,4.635,5.627a7.767,7.767,0,0,0,6.356-.678c1.407-.781,2.554-1.458,3.022-3.074.313-1.095.261-2.97-.677-3.8Z" transform="translate(-261.359 -201.203)" fill="#75b5d1"/>
            <path id="Path_382" data-name="Path 382" d="M274.153,207.791a2.991,2.991,0,0,1-1.081.36,10.184,10.184,0,0,1-1.613.291,20.246,20.246,0,0,1-2.506.138c-.653-.034-1.288-.138-1.94-.189a6.779,6.779,0,0,1-1.681-.395" transform="translate(-263.011 -203.463)" fill="none" stroke="#5390a5" stroke-miterlimit="10" stroke-width="1"/>
            <path id="Path_383" data-name="Path 383" d="M274.425,211.344a6.09,6.09,0,0,1-2.746,1c-1.012.018-2.007.12-3.021.155a12.2,12.2,0,0,1-2.368-.241,9.677,9.677,0,0,1-2.163-.721" transform="translate(-262.509 -204.941)" fill="none" stroke="#5390a5" stroke-miterlimit="10" stroke-width="1"/>
            <path id="Path_384" data-name="Path 384" d="M274.577,215.638a2.96,2.96,0,0,1-.927.4,7.144,7.144,0,0,1-1.167.377,10.846,10.846,0,0,1-3.329-.1,2.693,2.693,0,0,1-.72-.222c-.379-.171-.774-.293-1.133-.481" transform="translate(-263.829 -206.712)" fill="none" stroke="#5390a5" stroke-miterlimit="10" stroke-width="1"/>
          </g>
          <g id="Group_247" data-name="Group 247" transform="translate(4.679 82.436)">
            <g id="Group_205" data-name="Group 205" transform="translate(15.053 83.615)">
              <g id="Group_192" data-name="Group 192">
                <path id="Path_385" data-name="Path 385" d="M281.609,454.155a3.618,3.618,0,0,1-.082,1.306c-.253.788.011.995-.713,1.336a24.557,24.557,0,0,0-2.713,1.48,23.061,23.061,0,0,1-3.768,1.628c-1.508.566-3.469,1.734-4.7.332-.854.4-1.6.719-2.128.9a2.274,2.274,0,0,0-.226.089,15.789,15.789,0,0,0,4.8.863c.293,0,.579-.012.862-.024a22.421,22.421,0,0,0,3.849-.522c1.433-.273,2.934-.474,4.368-.748,1.251-.287,2.506-.816,3.756-1.219v-2.353c.008-.331.015-.7.027-1.081.015-.6.035-1.274.056-1.99Z" transform="translate(-266.613 -454.155)" fill="#cc7337"/>
                <path id="Path_386" data-name="Path 386" d="M276.009,459.906a23.06,23.06,0,0,0,3.768-1.628,24.563,24.563,0,0,1,2.713-1.48c.724-.341.46-.549.713-1.336a3.618,3.618,0,0,0,.082-1.306h-2.952c-.1.856-.242,1.389-.431,1.522-.079.053-.182.119-.3.194-1.15.723-4.192,2.376-6.827,3.669-.507.248-1,.485-1.46.7C272.54,461.64,274.5,460.472,276.009,459.906Z" transform="translate(-268.289 -454.155)" fill="#af612c"/>
                <g id="Group_191" data-name="Group 191" transform="translate(0 5.423)">
                  <g id="Group_190" data-name="Group 190">
                    <path id="Path_387" data-name="Path 387" d="M266.806,465.088a15.789,15.789,0,0,0,4.8.863,21.479,21.479,0,0,0,4.711-.546c1.433-.273,2.934-.474,4.368-.748,1.251-.287,2.506-.816,3.756-1.219v1s-15.065,3.664-18.156,1.859C266.284,466.294,265.718,465.57,266.806,465.088Z" transform="translate(-266.137 -463.438)" fill="#915023"/>
                  </g>
                </g>
              </g>
              <g id="Group_195" data-name="Group 195" transform="translate(9.907 1.798)">
                <g id="Group_194" data-name="Group 194">
                  <g id="Group_193" data-name="Group 193">
                    <path id="Path_388" data-name="Path 388" d="M285.987,459.229a.275.275,0,0,0,.159-.049.294.294,0,0,0,.086-.407,3.021,3.021,0,0,0-2.843-1.539.3.3,0,0,0,0,.594,2.444,2.444,0,0,1,2.349,1.267A.3.3,0,0,0,285.987,459.229Z" transform="translate(-283.095 -457.233)" fill="#ebeee0"/>
                  </g>
                </g>
              </g>
              <g id="Group_198" data-name="Group 198" transform="translate(8.61 2.642)">
                <g id="Group_197" data-name="Group 197">
                  <g id="Group_196" data-name="Group 196">
                    <path id="Path_389" data-name="Path 389" d="M283.765,460.676a.282.282,0,0,0,.161-.05.293.293,0,0,0,.086-.407,3.031,3.031,0,0,0-2.846-1.541.3.3,0,0,0,0,.592,2.447,2.447,0,0,1,2.352,1.271A.292.292,0,0,0,283.765,460.676Z" transform="translate(-280.874 -458.678)" fill="#ebeee0"/>
                  </g>
                </g>
              </g>
              <g id="Group_201" data-name="Group 201" transform="translate(7.114 3.345)">
                <g id="Group_200" data-name="Group 200">
                  <g id="Group_199" data-name="Group 199">
                    <path id="Path_390" data-name="Path 390" d="M281.2,461.876a.292.292,0,0,0,.163-.046.3.3,0,0,0,.084-.408,3.021,3.021,0,0,0-2.844-1.541.3.3,0,0,0,0,.592,2.445,2.445,0,0,1,2.349,1.269A.29.29,0,0,0,281.2,461.876Z" transform="translate(-278.314 -459.881)" fill="#ebeee0"/>
                  </g>
                </g>
              </g>
              <g id="Group_204" data-name="Group 204" transform="translate(5.613 4.123)">
                <g id="Group_203" data-name="Group 203">
                  <g id="Group_202" data-name="Group 202">
                    <path id="Path_391" data-name="Path 391" d="M278.635,463.206a.284.284,0,0,0,.162-.047.294.294,0,0,0,.085-.408,3.02,3.02,0,0,0-2.845-1.539.3.3,0,0,0,0,.591,2.449,2.449,0,0,1,2.351,1.268A.291.291,0,0,0,278.635,463.206Z" transform="translate(-275.744 -461.212)" fill="#ebeee0"/>
                  </g>
                </g>
              </g>
            </g>
            <g id="Group_221" data-name="Group 221" transform="translate(0 82.645)">
              <g id="Group_208" data-name="Group 208">
                <path id="Path_392" data-name="Path 392" d="M255.844,452.495a3.579,3.579,0,0,1-.083,1.3c-.254.79.012.995-.714,1.337a24.9,24.9,0,0,0-2.711,1.479,22.993,22.993,0,0,1-3.769,1.63c-1.508.565-3.468,1.734-4.7.333-.854.394-1.6.716-2.128.9a2.046,2.046,0,0,0-.227.088,15.84,15.84,0,0,0,4.8.863c.294,0,.58-.012.864-.024a22.652,22.652,0,0,0,3.848-.522c1.434-.273,2.935-.476,4.367-.748,1.254-.287,2.507-.816,3.757-1.219v-2.353c.007-.332.015-.7.027-1.081.015-.6.036-1.274.055-1.989Z" transform="translate(-240.847 -452.495)" fill="#cc7337"/>
                <path id="Path_393" data-name="Path 393" d="M250.243,458.245a22.992,22.992,0,0,0,3.769-1.63,24.9,24.9,0,0,1,2.711-1.479c.726-.342.46-.547.714-1.337a3.579,3.579,0,0,0,.083-1.3h-2.953c-.1.854-.241,1.386-.431,1.52-.08.053-.182.12-.3.2-1.15.721-4.192,2.374-6.827,3.667-.507.249-1,.485-1.459.7C246.775,459.979,248.735,458.81,250.243,458.245Z" transform="translate(-242.523 -452.495)" fill="#af612c"/>
                <g id="Group_207" data-name="Group 207" transform="translate(0 5.422)">
                  <g id="Group_206" data-name="Group 206">
                    <path id="Path_394" data-name="Path 394" d="M241.04,463.426a15.841,15.841,0,0,0,4.8.863,21.478,21.478,0,0,0,4.712-.546c1.434-.273,2.935-.476,4.367-.748,1.254-.287,2.507-.816,3.757-1.219v1s-15.065,3.666-18.156,1.86C240.518,464.632,239.951,463.908,241.04,463.426Z" transform="translate(-240.371 -461.776)" fill="#915023"/>
                  </g>
                </g>
              </g>
              <g id="Group_211" data-name="Group 211" transform="translate(9.908 1.796)">
                <g id="Group_210" data-name="Group 210">
                  <g id="Group_209" data-name="Group 209">
                    <path id="Path_395" data-name="Path 395" d="M260.221,457.566a.279.279,0,0,0,.16-.048.3.3,0,0,0,.087-.41,3.024,3.024,0,0,0-2.844-1.539.3.3,0,0,0,0,.595,2.446,2.446,0,0,1,2.349,1.265A.3.3,0,0,0,260.221,457.566Z" transform="translate(-257.33 -455.569)" fill="#ebeee0"/>
                  </g>
                </g>
              </g>
              <g id="Group_214" data-name="Group 214" transform="translate(8.609 2.641)">
                <g id="Group_213" data-name="Group 213">
                  <g id="Group_212" data-name="Group 212">
                    <path id="Path_396" data-name="Path 396" d="M258,459.014a.279.279,0,0,0,.16-.05.294.294,0,0,0,.086-.408,3.028,3.028,0,0,0-2.845-1.539.3.3,0,0,0,0,.592,2.447,2.447,0,0,1,2.352,1.272A.3.3,0,0,0,258,459.014Z" transform="translate(-255.107 -457.016)" fill="#ebeee0"/>
                  </g>
                </g>
              </g>
              <g id="Group_217" data-name="Group 217" transform="translate(7.114 3.345)">
                <g id="Group_216" data-name="Group 216">
                  <g id="Group_215" data-name="Group 215">
                    <path id="Path_397" data-name="Path 397" d="M255.439,460.216a.291.291,0,0,0,.162-.047.3.3,0,0,0,.084-.408,3.02,3.02,0,0,0-2.844-1.539.3.3,0,0,0,0,.59,2.45,2.45,0,0,1,2.35,1.27A.291.291,0,0,0,255.439,460.216Z" transform="translate(-252.547 -458.221)" fill="#ebeee0"/>
                  </g>
                </g>
              </g>
              <g id="Group_220" data-name="Group 220" transform="translate(5.613 4.12)">
                <g id="Group_219" data-name="Group 219">
                  <g id="Group_218" data-name="Group 218">
                    <path id="Path_398" data-name="Path 398" d="M252.869,461.542a.291.291,0,0,0,.163-.047.3.3,0,0,0,.085-.408,3.025,3.025,0,0,0-2.845-1.539.3.3,0,0,0,0,.592,2.445,2.445,0,0,1,2.35,1.268A.3.3,0,0,0,252.869,461.542Z" transform="translate(-249.978 -459.547)" fill="#ebeee0"/>
                  </g>
                </g>
              </g>
            </g>
            <g id="Group_246" data-name="Group 246" transform="translate(8.11)">
              <g id="Group_223" data-name="Group 223" transform="translate(0 2.628)">
                <g id="Group_222" data-name="Group 222">
                  <path id="Path_399" data-name="Path 399" d="M281.254,315.532s-.734,37.35-.734,44.916c0,0,.453,36.178.094,37.381,0,0-6.03,1.147-9.031-.524,0,0,.171-15.6.171-20.886s-3.821-46.955-3.821-46.955l-2.637-1.083.626,68.067s-5.78,1.428-8.849-.23c0,0-.752-23.644-.9-27.484s-2.74-49.961-1.658-53.2Z" transform="translate(-254.252 -315.532)" fill="#577b9c"/>
                </g>
              </g>
              <g id="Group_239" data-name="Group 239" transform="translate(7.293 3.611)">
                <g id="Group_226" data-name="Group 226" transform="translate(0 10.026)">
                  <g id="Group_225" data-name="Group 225">
                    <g id="Group_224" data-name="Group 224">
                      <path id="Path_400" data-name="Path 400" d="M274.02,337.779a9.768,9.768,0,0,1-1.243-.31,20.094,20.094,0,0,1-2.582-1,20.473,20.473,0,0,1-2.426-1.334,9.57,9.57,0,0,1-1.033-.757,9.335,9.335,0,0,1,1.243.306,20.3,20.3,0,0,1,2.582,1,21.322,21.322,0,0,1,2.425,1.336A9.512,9.512,0,0,1,274.02,337.779Z" transform="translate(-266.735 -334.377)" fill="#335a7c"/>
                    </g>
                  </g>
                </g>
                <g id="Group_229" data-name="Group 229" transform="translate(12.519 2.859)">
                  <g id="Group_228" data-name="Group 228">
                    <g id="Group_227" data-name="Group 227">
                      <path id="Path_401" data-name="Path 401" d="M288.493,322.108s.013.155.02.424c-.006.14.036.3.049.471s.064.378.1.594a11.573,11.573,0,0,0,.4,1.438,12.814,12.814,0,0,0,.661,1.563c.14.249.258.515.417.75a7.962,7.962,0,0,0,.457.689c.153.221.329.409.483.6.178.162.324.358.5.485a3.849,3.849,0,0,0,.469.36,2.5,2.5,0,0,0,.4.242l.377.188s-.15,0-.428-.023a1.936,1.936,0,0,1-.488-.105,2.639,2.639,0,0,1-.606-.251,4.26,4.26,0,0,1-.657-.418,5.784,5.784,0,0,1-.63-.595,5.349,5.349,0,0,1-.573-.723c-.185-.254-.327-.539-.488-.812-.124-.292-.268-.572-.365-.872a6.829,6.829,0,0,1-.257-.875,6.224,6.224,0,0,1-.159-1.607,4,4,0,0,1,.064-.646,2.613,2.613,0,0,1,.113-.483C288.436,322.253,288.493,322.108,288.493,322.108Z" transform="translate(-288.163 -322.108)" fill="#335a7c"/>
                    </g>
                  </g>
                </g>
                <g id="Group_232" data-name="Group 232" transform="translate(4.237)">
                  <g id="Group_231" data-name="Group 231">
                    <g id="Group_230" data-name="Group 230">
                      <path id="Path_402" data-name="Path 402" d="M274.435,317.215s.007.167.042.452.08.692.138,1.18c.109.977.21,2.278.252,3.583a35.566,35.566,0,0,1-.072,3.6,7.26,7.26,0,0,1-.24,1.639c.034,0-.127-.648-.259-1.622a34.417,34.417,0,0,1-.3-3.59,27.928,27.928,0,0,1,.12-3.607,10.11,10.11,0,0,1,.188-1.189A2.707,2.707,0,0,1,274.435,317.215Z" transform="translate(-273.987 -317.215)" fill="#335a7c"/>
                    </g>
                  </g>
                </g>
                <g id="Group_235" data-name="Group 235" transform="translate(2.478 1.659)">
                  <g id="Group_234" data-name="Group 234">
                    <g id="Group_233" data-name="Group 233">
                      <path id="Path_403" data-name="Path 403" d="M271.381,320.055a7.864,7.864,0,0,1,.235,1.172c.1.694.179,1.619.254,2.524a16.927,16.927,0,0,0,.313,2.441c.048.158.072.316.122.443s.082.247.13.333c.094.186.146.294.146.294s-.1-.058-.281-.186a2.655,2.655,0,0,1-.58-.692,4.665,4.665,0,0,1-.475-1.166,8.145,8.145,0,0,1-.24-1.4,11.264,11.264,0,0,1,.114-2.6A8.97,8.97,0,0,1,271.381,320.055Z" transform="translate(-270.977 -320.055)" fill="#335a7c"/>
                    </g>
                  </g>
                </g>
                <g id="Group_238" data-name="Group 238" transform="translate(17.385 2.859)">
                  <g id="Group_237" data-name="Group 237">
                    <g id="Group_236" data-name="Group 236">
                      <path id="Path_404" data-name="Path 404" d="M296.641,322.108s.041,1.164.115,3.2c.058,2.036.143,4.943.244,8.434.072,3.487.192,7.558.251,11.921s.129,9.012.195,13.667c-.044,4.653-.093,9.307-.134,13.672s-.147,8.435-.2,11.925c-.086,3.49-.158,6.395-.206,8.433-.068,2.032-.1,3.194-.1,3.194s-.025-1.161-.067-3.2-.064-4.945-.11-8.433c-.016-3.494-.075-7.562-.064-11.923s.015-9.011.021-13.66c-.025-4.653-.052-9.308-.077-13.67s.011-8.432.011-11.922c.029-3.493.057-6.4.075-8.435C296.623,323.273,296.641,322.108,296.641,322.108Z" transform="translate(-296.493 -322.108)" fill="#335a7c"/>
                    </g>
                  </g>
                </g>
              </g>
              <g id="Group_241" data-name="Group 241" transform="translate(0.27 0.241)">
                <g id="Group_240" data-name="Group 240">
                  <path id="Path_405" data-name="Path 405" d="M281.175,311.78v2.457s-16.656,2.037-26.461-.751v-2.04S264.011,313.682,281.175,311.78Z" transform="translate(-254.714 -311.446)" fill="#2e2f33"/>
                </g>
              </g>
              <rect id="Rectangle_486" data-name="Rectangle 486" width="5.7" height="2.987" transform="translate(8.151 1.428)" fill="#babebf"/>
              <g id="Group_243" data-name="Group 243" transform="translate(20.899 0)">
                <g id="Group_242" data-name="Group 242">
                  <path id="Path_406" data-name="Path 406" d="M291.147,315.918c.036-.157,0-4.884,0-4.884l-1.123.841v4.435Z" transform="translate(-290.024 -311.034)" fill="#577b9c"/>
                </g>
              </g>
              <g id="Group_245" data-name="Group 245" transform="translate(2.006)">
                <g id="Group_244" data-name="Group 244">
                  <path id="Path_407" data-name="Path 407" d="M259.058,315.917v-4.884h-1.372v5.276h1.1" transform="translate(-257.686 -311.034)" fill="#577b9c"/>
                </g>
              </g>
            </g>
          </g>
          <g id="Group_253" data-name="Group 253" transform="translate(29.079 58.498)">
            <g id="Group_252" data-name="Group 252">
              <g id="Group_249" data-name="Group 249">
                <g id="Group_248" data-name="Group 248">
                  <path id="Path_408" data-name="Path 408" d="M282.136,270.059" transform="translate(-282.136 -270.059)" fill="#d7ecf9"/>
                </g>
              </g>
              <g id="Group_251" data-name="Group 251" transform="translate(13.148 11.319)">
                <g id="Group_250" data-name="Group 250">
                  <path id="Path_409" data-name="Path 409" d="M304.641,289.434" transform="translate(-304.641 -289.434)" fill="#d7ecf9"/>
                </g>
              </g>
            </g>
          </g>
          <path id="Path_410" data-name="Path 410" d="M292.083,448.547h0Z" transform="translate(-257.145 -285.772)" fill="#394042"/>
          <g id="Group_256" data-name="Group 256" transform="translate(0 32.337)">
            <g id="Group_255" data-name="Group 255">
              <path id="Path_411" data-name="Path 411" d="M282.139,257.028c-.178-4.289.08-25.02.08-25.02l-.238-2.21s-2.281-2.337-7.766-3.277c-.312-.054-.656-.1-1.01-.138-.743-.555-.759-.806-.721-1.1a46.982,46.982,0,0,1-5.395,1.272c-1.578.315-2.881-.276-4.3-.79l-1.916.862a15.641,15.641,0,0,0-5.586,2.69l-.685,16.99c-.018.3-.035.591-.049.886q-.465,8.212-.928,16.423c-.208,3.629-1.126,7.132-.927,10.8.1,1.916,1.348,2.005,2.97,2.257.632.1,1.147.53,1.778.626a33.517,33.517,0,0,0,3.556.209c.856.032,1.7-.141,2.551-.124a23.259,23.259,0,0,1,2.678.475,13.5,13.5,0,0,0,1.719-.054,16.97,16.97,0,0,0,4.948-.282,26.464,26.464,0,0,1,5.264-.462c2.108-.136,4.421-.723,3.826-3.37a17.573,17.573,0,0,1-.169-3.988C281.81,265.477,282.313,261.255,282.139,257.028Z" transform="translate(-240.804 -225.281)" fill="#fff"/>
              <path id="Path_412" data-name="Path 412" d="M247.365,245.3c-3.124,5.3-12.484,13.859-12.669,13.058,0,0-3.93-4.489-1.593-9.242,2.613-3.523,9.109-12.186,11.79-15.657.775-1,1.823-2.788,3.047-3.259" transform="translate(-232.362 -227.324)" fill="#babebf"/>
              <g id="Group_254" data-name="Group 254" transform="translate(19.433 42.097)">
                <path id="Path_413" data-name="Path 413" d="M265.624,301.22c3.535-.743,8.8-1,11.47-3.883" transform="translate(-265.624 -297.337)" fill="none" stroke="#b1c6e5" stroke-miterlimit="10" stroke-width="1"/>
              </g>
            </g>
          </g>
        </g>
        <g id="Group_273" data-name="Group 273" transform="translate(10.063 31.446)">
          <g id="Group_260" data-name="Group 260" transform="translate(27.015 3.367)">
            <path id="Path_414" data-name="Path 414" d="M316.212,282.166c-.7-2.254-2.147-5.108-3.129-5.758a7.243,7.243,0,0,1-.587-3.313c.273-1.972.414-7.574.575-9.585.216-3.035.019-6.512-.517-8a14.009,14.009,0,0,0-.916-3.854c-.554-.929-4.424-10.481-7.21-15.451-1.428-2.64-3.277-6.9-6.723-6.113l-.411,7.215a131.318,131.318,0,0,1,8.41,18.605,14.69,14.69,0,0,0,.363,2.139l1.507,8.871c.466,3.483,1.288,6.676,1.556,9.409l-.074.036c-1.817,1.037-1.564,4.329-1.535,6.157-.024.934.029,1.832.082,2.728.011,1.007-.337,3.012.089,3.921.979,2.1.929-3.115,1.061-3.632.229-.908.254.078.321.9.107,1.282.283,2.5.3,3.322.124,1.048.158,2.362.927,2.614.966.123.181-5.956.411-6.695.7.023.536,6.528,1.345,7.109,1.649.886-.205-6.91.922-6.812.548,1.955.329,4.929,1.088,5,1.133.238.654-5.119.165-8.847a.212.212,0,0,0,.034-.013c.419.766,1.22,3.88,2.14,4.171C317.881,286.737,316.346,282.705,316.212,282.166Z" transform="translate(-296.437 -229.719)" fill="#f9cdbb"/>
            <path id="Path_415" data-name="Path 415" d="M320.193,311.647a1.917,1.917,0,0,1,.057.23c.03.138.047.339.082.583a6.341,6.341,0,0,0,.17.86,2.608,2.608,0,0,0,.2.512,3.874,3.874,0,0,0,.275.492,4.368,4.368,0,0,0,.355.468,5.214,5.214,0,0,0,.388.4,5.394,5.394,0,0,0,.761.563,5.7,5.7,0,0,0,.778.389s-.068-.064-.189-.165-.292-.254-.5-.422-.425-.387-.65-.619a5.609,5.609,0,0,1-.613-.778,3.02,3.02,0,0,1-.262-.439,2.839,2.839,0,0,1-.2-.425c-.11-.287-.2-.577-.285-.825a5.57,5.57,0,0,0-.243-.611A1.836,1.836,0,0,0,320.193,311.647Z" transform="translate(-305.958 -263.666)" fill="#e8a07d"/>
            <g id="Group_259" data-name="Group 259">
              <path id="Path_416" data-name="Path 416" d="M297.1,229.9a10.008,10.008,0,0,1,3.124-.334c4.7.8,9.966,15.738,11.709,21.855.809,2.833,1.521,7.4,1.561,15.583.035,6.722.035,5.555-.769,6.388l-.633.255.061,1.3a12.992,12.992,0,0,1-4.049.193l-.355-.867s-1.235.169-1.308-1.318-2.038-14.753-2.909-18.188-7.285-16.586-7.649-19.169S297.1,229.9,297.1,229.9Z" transform="translate(-295.827 -229.52)" fill="#babebf"/>
              <g id="Group_258" data-name="Group 258" transform="translate(9.485 25.61)">
                <path id="Path_417" data-name="Path 417" d="M312.063,273.356a23.531,23.531,0,0,1,4.528.974" transform="translate(-312.063 -273.356)" fill="none" stroke="#9d9e9e" stroke-miterlimit="10" stroke-width="1"/>
                <path id="Path_418" data-name="Path 418" d="M317.528,305.388c1.094-.191,2.256-.528,3.355-.618" transform="translate(-314.335 -286.417)" fill="none" stroke="#9d9e9e" stroke-miterlimit="10" stroke-width="1"/>
              </g>
            </g>
          </g>
          <g id="Group_266" data-name="Group 266" transform="translate(0 0.845)">
            <g id="Group_261" data-name="Group 261" transform="translate(0 0.952)">
              <path id="Path_419" data-name="Path 419" d="M255.415,228.589a2.619,2.619,0,0,0-1.487,1.74c-.962,7.09-.8,13.632-1.619,21.319-.776,7.281-1.554,14.566-2.192,21.861-.194,2.221-.733,4.781-.45,7.012a3.681,3.681,0,0,0,.979,1.83l-.109,3.039c1.985,1.062,6.085,1.051,6.085,1.051l3.841-59.609A26.214,26.214,0,0,0,255.415,228.589Z" transform="translate(-249.586 -226.831)" fill="#babebf"/>
            </g>
            <g id="Group_262" data-name="Group 262" transform="translate(2.723 6.879)">
              <path id="Path_420" data-name="Path 420" d="M255.266,236.976a166.926,166.926,0,0,1-1.019,19.626" transform="translate(-254.247 -236.976)" fill="none" stroke="#9d9e9e" stroke-miterlimit="10" stroke-width="1"/>
            </g>
            <g id="Group_263" data-name="Group 263" transform="translate(6.57)">
              <path id="Path_421" data-name="Path 421" d="M260.836,228.186a2.314,2.314,0,0,1,.776-1.946,9.2,9.2,0,0,1,3.983-1.038s-1.306,14.894-1.309,14.91c.132-1.5-1.133-3.928-1.55-5.354C262.142,232.713,260.761,230.326,260.836,228.186Z" transform="translate(-260.833 -225.202)" fill="#cecece"/>
            </g>
            <g id="Group_264" data-name="Group 264" transform="translate(1.158 56.571)">
              <path id="Path_422" data-name="Path 422" d="M256.308,322.871c-.536-.062-1.234-.212-1.941-.286-.344-.067-.686-.137-1.012-.186-.162-.037-.326-.033-.475-.081l-.423-.108c-.528-.127-.889-.178-.889-.178s.318.181.811.407c.123.053.256.113.4.175a2.6,2.6,0,0,0,.469.15c.333.088.692.168,1.053.248a11.942,11.942,0,0,0,1.994.1c.543-.023.9-.072.9-.072S256.841,322.953,256.308,322.871Z" transform="translate(-251.568 -322.032)" fill="#9d9e9e"/>
              <path id="Path_423" data-name="Path 423" d="M253.041,323.2a2.45,2.45,0,0,0-.118.408,4.273,4.273,0,0,0,.01,1.786,2.309,2.309,0,0,0,.123.4,2.533,2.533,0,0,0,.119-.413,4.179,4.179,0,0,0-.011-1.777A2.425,2.425,0,0,0,253.041,323.2Z" transform="translate(-252.094 -322.518)" fill="#9d9e9e"/>
              <path id="Path_424" data-name="Path 424" d="M256.421,323.875a2.084,2.084,0,0,0-.122.373,3.85,3.85,0,0,0-.1.818,3.5,3.5,0,0,0,.037.807,2.013,2.013,0,0,0,.1.371,2.06,2.06,0,0,0,.147-.369,3.792,3.792,0,0,0,.15-.819,3.523,3.523,0,0,0-.092-.816A2.05,2.05,0,0,0,256.421,323.875Z" transform="translate(-253.491 -322.798)" fill="#9d9e9e"/>
            </g>
            <g id="Group_265" data-name="Group 265" transform="translate(7.571 8.208)">
              <path id="Path_425" data-name="Path 425" d="M262.857,252.551h-.005a.323.323,0,0,1-.306-.34c.089-1.822.241-3.856.389-5.823.172-2.305.351-4.688.439-6.827a.325.325,0,0,1,.335-.31h0a.323.323,0,0,1,.31.338c-.086,2.149-.265,4.538-.439,6.848-.148,1.963-.3,3.991-.389,5.806A.325.325,0,0,1,262.857,252.551Z" transform="translate(-262.545 -239.251)" fill="#fff"/>
            </g>
          </g>
          <g id="Group_272" data-name="Group 272" transform="translate(21.422)">
            <g id="Group_267" data-name="Group 267" transform="translate(0 0.891)">
              <path id="Path_426" data-name="Path 426" d="M294.67,283.952c-2.053.924-8.416.735-8.416.735l.194-59.406q1.618.306,3.235.616c1.27.245,2.515.6,3.774.9.275.069,2.817.594,2.783,1-.62,7.556-.179,5.3-.281,13.611-.09,7.321.27,23.493.4,30.814a33.69,33.69,0,0,1-.481,6.932,3.674,3.674,0,0,1-1.1,1.758Z" transform="translate(-286.254 -225.281)" fill="#babebf"/>
            </g>
            <g id="Group_268" data-name="Group 268">
              <path id="Path_427" data-name="Path 427" d="M290.723,226.825a2.316,2.316,0,0,0-.637-2c-.68-.6-2.155-.779-3.831-1.071,0,0,.2,14.71.2,14.727-.027-1.5,1.4-3.841,1.917-5.235C289.107,231.249,290.65,228.963,290.723,226.825Z" transform="translate(-286.254 -223.756)" fill="#cecece"/>
            </g>
            <g id="Group_269" data-name="Group 269" transform="translate(1.566 8.129)">
              <path id="Path_428" data-name="Path 428" d="M289.246,251a.325.325,0,0,1-.312-.331c.036-1.817.026-3.851.015-5.819-.013-2.317-.026-4.712.036-6.863a.325.325,0,0,1,.332-.315h0a.325.325,0,0,1,.313.334c-.062,2.138-.048,4.529-.036,6.841.011,1.972.022,4.011-.015,5.834a.323.323,0,0,1-.329.318Z" transform="translate(-288.934 -237.67)" fill="#fff"/>
            </g>
            <g id="Group_270" data-name="Group 270" transform="translate(9.654 5.633)">
              <path id="Path_429" data-name="Path 429" d="M303.083,233.4a163.5,163.5,0,0,0-.1,18.187" transform="translate(-302.778 -233.398)" fill="none" stroke="#9d9e9e" stroke-miterlimit="10" stroke-width="1"/>
            </g>
            <g id="Group_271" data-name="Group 271" transform="translate(0.92 56.464)">
              <path id="Path_430" data-name="Path 430" d="M294.659,320.519l-.431.078c-.152.037-.315.023-.478.049-.33.025-.676.071-1.023.115-.709.024-1.417.126-1.957.151-.537.044-2.941.362-2.941.362s.12.138.971.123c1.65-.133,3.477-.221,3.965-.207.365-.054.729-.109,1.068-.176a2.488,2.488,0,0,0,.477-.114q.219-.076.411-.147c.508-.189.836-.349.836-.349S295.193,320.43,294.659,320.519Z" transform="translate(-287.829 -320.403)" fill="#9d9e9e"/>
              <path id="Path_431" data-name="Path 431" d="M299.129,321.454a2.351,2.351,0,0,0-.151.391,4.271,4.271,0,0,0-.162.879,4.344,4.344,0,0,0,.028.893,2.426,2.426,0,0,0,.09.419,2.216,2.216,0,0,0,.15-.387,4.313,4.313,0,0,0,.161-.883,4.466,4.466,0,0,0-.027-.9A2.386,2.386,0,0,0,299.129,321.454Z" transform="translate(-292.392 -320.84)" fill="#9d9e9e"/>
              <path id="Path_432" data-name="Path 432" d="M295.718,321.893a1.968,1.968,0,0,0-.147.359,3.508,3.508,0,0,0-.148.8,3.8,3.8,0,0,0,.093.83,2.161,2.161,0,0,0,.122.378,2.052,2.052,0,0,0,.122-.364,3.584,3.584,0,0,0,.093-.8,3.907,3.907,0,0,0-.039-.824A2.231,2.231,0,0,0,295.718,321.893Z" transform="translate(-290.986 -321.023)" fill="#9d9e9e"/>
              <path id="Path_433" data-name="Path 433" d="M291.954,323.533a2.9,2.9,0,0,0,.059.545,1.117,1.117,0,0,0,.206.551,5.549,5.549,0,0,0,.172-.543,2.9,2.9,0,0,0,.049-.552,2.417,2.417,0,0,0-.256-1.1A2.349,2.349,0,0,0,291.954,323.533Z" transform="translate(-289.544 -321.249)" fill="#9d9e9e"/>
              <path id="Path_434" data-name="Path 434" d="M288.384,323.562a1.843,1.843,0,0,0,.212.846,1.275,1.275,0,0,0,.273-.856,1.4,1.4,0,0,0-.291-.848A1.676,1.676,0,0,0,288.384,323.562Z" transform="translate(-288.06 -321.36)" fill="#9d9e9e"/>
            </g>
          </g>
        </g>
      </g>
      <path id="Path_435" data-name="Path 435" d="M170.813,224.273c-3.549.49-4.284,3.672-6,6.365a70.16,70.16,0,0,1-5.753,7.712c-2.081,2.448-4.651,4.04-6.854,6.243-.734.734-.858.367-.734,1.345.122.734.857,1.347,1.224,1.959a31.77,31.77,0,0,0,2.326,3.795c5.874-5.141,12.974-9.547,17.013-16.646Z" transform="translate(-14.489 -25.59)" fill="#7a5937"/>
      <g id="Group_287" data-name="Group 287" transform="translate(141.794 212.823)">
        <g id="Group_285" data-name="Group 285" transform="translate(1.064)">
          <g id="Group_282" data-name="Group 282">
            <path id="Path_436" data-name="Path 436" d="M201.99,253.924c.1-.41,1.594-3.874,2.2-2.862.42.7.438,2.328.012,2.683a10.325,10.325,0,0,1,2.295,2.158c.632,1.262-.272,2.832-1.185,3.914-.633.752-1.379.88-2.1,1.541s-1.448.432-1.5-.434a8.586,8.586,0,0,1,.92-3.386c.329-.969-.871-1.851-.832-2.824A3.992,3.992,0,0,1,201.99,253.924Z" transform="translate(-178.245 -249.475)" fill="#efcbbd"/>
            <g id="Group_280" data-name="Group 280" transform="translate(25.395 3.152)">
              <g id="Group_276" data-name="Group 276" transform="translate(1.533 3.244)">
                <path id="Path_437" data-name="Path 437" d="M209.16,259.5a1.223,1.223,0,0,1,.212,1.632.984.984,0,0,1-1.236.494c-.827-.43.186-1.351.688-1.7Z" transform="translate(-207.719 -259.454)" fill="#efcbbd"/>
                <g id="Group_275" data-name="Group 275">
                  <path id="Path_438" data-name="Path 438" d="M209.2,259.449a1.321,1.321,0,0,1,0,1.924,1.075,1.075,0,0,1-1.251.247c-.532-.317-.291-.8.044-1.187a3.549,3.549,0,0,1,.58-.515,2.289,2.289,0,0,0,.386-.462c.046-.06.275-.029.237.019a2.245,2.245,0,0,1-.41.487,2.78,2.78,0,0,0-.837.876.515.515,0,0,0,0,.563c.324.5.915.092,1.162-.219a1.251,1.251,0,0,0-.152-1.7C208.928,259.44,209.152,259.394,209.2,259.449Z" transform="translate(-207.646 -259.423)" fill="#e8a07d"/>
                </g>
              </g>
              <g id="Group_277" data-name="Group 277" transform="translate(0.864 2.135)">
                <path id="Path_439" data-name="Path 439" d="M207.907,257.611c-.452-.248-1.741,1.629-1,2.228.708.541,3.137-1.621,1.474-2.255Z" transform="translate(-206.577 -257.55)" fill="#efcbbd"/>
                <path id="Path_440" data-name="Path 440" d="M208.3,257.527h.009l.006,0a1.237,1.237,0,0,1,.383.206.465.465,0,0,1,.148.169.492.492,0,0,1,.085.214.835.835,0,0,1-.031.454,1.683,1.683,0,0,1-.189.4,2.947,2.947,0,0,1-.6.63,2.885,2.885,0,0,1-.372.234,1.437,1.437,0,0,1-.421.155.672.672,0,0,1-.248.018l-.136-.018c-.036-.013-.065-.03-.1-.044a.637.637,0,0,1-.307-.393,1.369,1.369,0,0,1,.116-.882,2.756,2.756,0,0,1,.46-.723,1.766,1.766,0,0,1,.321-.284c.11-.075.273-.157.4-.081C207.989,257.565,208.145,257.544,208.3,257.527Zm-.835.192a1.68,1.68,0,0,0-.271.3,2.774,2.774,0,0,0-.38.717,1.316,1.316,0,0,0-.068.752.442.442,0,0,0,.2.244c.032.013.064.032.093.041l.072,0a.463.463,0,0,0,.165-.019,1.341,1.341,0,0,0,.359-.133,2.761,2.761,0,0,0,.339-.208,3.02,3.02,0,0,0,.567-.561,1.813,1.813,0,0,0,.189-.341.668.668,0,0,0,.056-.366.563.563,0,0,0-.167-.323,1.135,1.135,0,0,0-.324-.231l.013,0c-.158,0-.317,0-.474-.008C207.688,257.536,207.569,257.636,207.467,257.719Z" transform="translate(-206.502 -257.526)" fill="#e8a07d"/>
              </g>
              <g id="Group_279" data-name="Group 279">
                <path id="Path_441" data-name="Path 441" d="M205.3,255.488c.273-.92,1.03-1.821,1.843-1.4,1.345.7-.031,3.077-1.254,3C205.185,257.045,205.072,256.258,205.3,255.488Z" transform="translate(-205.094 -253.917)" fill="#efcbbd"/>
                <g id="Group_278" data-name="Group 278">
                  <path id="Path_442" data-name="Path 442" d="M205.11,255.446c.225-.684.845-1.755,1.742-1.549.871.2,1.026,1,.751,1.757a2.171,2.171,0,0,1-1.569,1.427c-1.016.1-1.135-.833-.924-1.634.018-.065.258-.08.237,0-.174.66-.136,1.986,1.007,1.421a2.349,2.349,0,0,0,1.012-1.2,1.311,1.311,0,0,0-.123-1.377c-.817-.977-1.683.509-1.9,1.159C205.325,255.507,205.086,255.517,205.11,255.446Z" transform="translate(-205.022 -253.871)" fill="#e8a07d"/>
                </g>
              </g>
            </g>
            <g id="Group_281" data-name="Group 281">
              <path id="Path_443" data-name="Path 443" d="M163.54,264.26s-3.306-14.78-1.385-12.154c2.447,3.348,12.031,14.391,15.147,18.227,1.331-2.139,2.565-4.342,3.808-6.533q.957-1.685,1.9-3.376a11.714,11.714,0,0,0,.9-2.569s-.156-1.085-.318-2.086a10.608,10.608,0,0,1,.5-4.215c.151-.609.293-1.222.46-1.828.1-.359.153-1.019.548-1.187.882-.377.862,1.033.783,1.524-.185,1.137-.971,3.186.436,3.863a1.164,1.164,0,0,1,.611.663,6.42,6.42,0,0,1,.7,2.539,9.583,9.583,0,0,1-.728,3.5q-.649,2.279-1.376,4.535a54.292,54.292,0,0,1-4.436,10.971c-.508.861-1.46,2.606-2.682,2.52C174.951,277.574,163.54,264.26,163.54,264.26Z" transform="translate(-161.555 -248.476)" fill="#eab8a4"/>
            </g>
            <path id="Path_444" data-name="Path 444" d="M204.236,261.757s.051-.393.072-.985c.006-.3.005-.643-.019-1.013a7.261,7.261,0,0,0-.158-1.163,3.274,3.274,0,0,0-.185-.59,2.949,2.949,0,0,0-.308-.51,4.392,4.392,0,0,0-.737-.73,6.5,6.5,0,0,1-.519-.473c-.11-.13-.183-.2-.183-.2a2.58,2.58,0,0,0,.113.251,3.265,3.265,0,0,0,.415.6,7.953,7.953,0,0,1,.618.751,2.72,2.72,0,0,1,.266.464,2.93,2.93,0,0,1,.175.523,18,18,0,0,1,.335,2.1C204.19,261.366,204.236,261.757,204.236,261.757Z" transform="translate(-178.454 -251.642)" fill="#e8a07d"/>
          </g>
          <g id="Group_284" data-name="Group 284" transform="translate(24.843 1.446)">
            <path id="Path_445" data-name="Path 445" d="M204.31,253.133c-.179-1,.47-2.629,1.485-1.878s.171,3.244-1.119,2.512A.871.871,0,0,1,204.31,253.133Z" transform="translate(-204.162 -250.997)" fill="#f9cdbb"/>
            <g id="Group_283" data-name="Group 283">
              <path id="Path_446" data-name="Path 446" d="M204.1,253.07c-.1-.709.086-1.806.861-2.078.58-.2,1.176.378,1.278.9a1.827,1.827,0,0,1-.723,1.9.983.983,0,0,1-1.414-.713c-.016-.078.224-.061.238,0,.093.411.344.808.845.687a1.014,1.014,0,0,0,.54-.451,1.981,1.981,0,0,0,.287-1.367,1.179,1.179,0,0,0-.345-.684c-.383-.374-.765-.144-1.009.2a2.351,2.351,0,0,0-.316,1.628C204.354,253.156,204.115,253.149,204.1,253.07Z" transform="translate(-204.077 -250.951)" fill="#e8a07d"/>
            </g>
          </g>
        </g>
        <g id="Group_286" data-name="Group 286" transform="translate(0 3.08)">
          <path id="Path_447" data-name="Path 447" d="M160.711,253.747c2.661.592,3.158,2.325,6.043,5.525-1.7,3.109-3.64,4.161-5.831,4.25-.59-2.366-1.6-6.212-1.01-8.871Z" transform="translate(-159.734 -253.747)" fill="#669c9e"/>
        </g>
      </g>
      <g id="Group_315" data-name="Group 315" transform="translate(148.408 162.726)">
        <g id="Group_297" data-name="Group 297" transform="translate(0 82.145)">
          <g id="Group_289" data-name="Group 289" transform="translate(0 87.008)">
            <g id="Group_288" data-name="Group 288" transform="translate(0 5.299)">
              <path id="Path_448" data-name="Path 448" d="M171.653,464.277a15.529,15.529,0,0,0,4.75.478,21.115,21.115,0,0,0,4.558-.889c1.378-.375,2.828-.685,4.206-1.062,1.2-.374,2.385-.986,3.574-1.473l.076.974s-14.429,4.716-17.583,3.187C171.235,465.492,170.627,464.831,171.653,464.277Z" transform="translate(-171.056 -461.331)" fill="#bababa"/>
            </g>
            <path id="Path_449" data-name="Path 449" d="M189.053,456.1l-.066-.836c-.017-.328-.037-.684-.054-1.058-.03-.591-.062-1.245-.1-1.945l-6.191.48c-.034.843-.13,1.374-.306,1.517-.073.057-.169.13-.28.214-1.069.792-3.913,2.633-6.386,4.1a37.19,37.19,0,0,1-3.382,1.835,1.972,1.972,0,0,0-.214.1,15.529,15.529,0,0,0,4.75.478c.286-.022.564-.055.841-.089a21.96,21.96,0,0,0,3.717-.8c1.378-.375,2.828-.685,4.206-1.062,1.2-.374,2.385-.986,3.574-1.473Z" transform="translate(-171.481 -452.26)" fill="#373a3a"/>
          </g>
          <g id="Group_291" data-name="Group 291" transform="translate(25.875 87.039)">
            <g id="Group_290" data-name="Group 290" transform="translate(0 5.301)">
              <path id="Path_450" data-name="Path 450" d="M232.518,464.271a15.478,15.478,0,0,1-4.749.495,21.133,21.133,0,0,1-4.56-.871c-1.38-.371-2.831-.677-4.21-1.049-1.2-.37-2.389-.977-3.58-1.459l-.072.973s14.446,4.665,17.595,3.124C232.941,465.485,233.545,464.819,232.518,464.271Z" transform="translate(-215.346 -461.387)" fill="#bababa"/>
            </g>
            <path id="Path_451" data-name="Path 451" d="M232.355,460.4a37.361,37.361,0,0,1-3.388-1.821c-2.479-1.455-5.329-3.285-6.4-4.075-.112-.083-.207-.155-.281-.212-.176-.143-.274-.674-.312-1.518l-6.193-.456c-.031.7-.061,1.357-.088,1.947-.016.375-.035.731-.052,1.058l-.061.836-.108,1.461c1.191.483,2.378,1.09,3.58,1.459,1.379.372,2.83.678,4.21,1.049a22.082,22.082,0,0,0,3.72.785c.277.034.554.066.84.085a15.477,15.477,0,0,0,4.749-.495A2.383,2.383,0,0,0,232.355,460.4Z" transform="translate(-215.398 -452.313)" fill="#373a3a"/>
          </g>
          <g id="Group_296" data-name="Group 296" transform="translate(6.056)">
            <g id="Group_294" data-name="Group 294" transform="translate(0.106 1.893)">
              <g id="Group_292" data-name="Group 292">
                <path id="Path_452" data-name="Path 452" d="M211.223,306.571s-1.384,41.345-1.384,49.329c0,0,.545,36.691.165,37.96a23.851,23.851,0,0,1-9.514-.08l-3.938-70.59-1.25-.512-.894,70.362s-6.6,2.517-9.082-.049c0,0-1.031-24.287-1.191-28.341S180.7,310,181.844,306.571Z" transform="translate(-181.603 -306.571)" fill="#2c4d60"/>
              </g>
              <g id="Group_293" data-name="Group 293" transform="translate(1.531 1.914)">
                <path id="Path_453" data-name="Path 453" d="M187.281,310.987c.248,2.583-1.333,5.56-3.058,7.306" transform="translate(-184.223 -310.322)" fill="none" stroke="#1e3641" stroke-miterlimit="10" stroke-width="1"/>
                <path id="Path_454" data-name="Path 454" d="M224.649,311.276c-.155,2.485,1.58,5.193,3.4,6.8" transform="translate(-201.027 -310.442)" fill="none" stroke="#1e3641" stroke-miterlimit="10" stroke-width="1"/>
                <path id="Path_455" data-name="Path 455" d="M205.36,312.149c0,2.112-.778,9.178,1.359,10.028" transform="translate(-192.954 -310.805)" fill="none" stroke="#1e3641" stroke-miterlimit="10" stroke-width="1"/>
                <path id="Path_456" data-name="Path 456" d="M207.651,309.848c0,3.335.851,9.581-.41,13.73" transform="translate(-193.793 -309.848)" fill="none" stroke="#1e3641" stroke-miterlimit="10" stroke-width="1"/>
                <path id="Path_457" data-name="Path 457" d="M199.64,332.8a32.191,32.191,0,0,1,9.686,2.72" transform="translate(-190.633 -319.391)" fill="none" stroke="#1e3641" stroke-miterlimit="10" stroke-width="1"/>
                <path id="Path_458" data-name="Path 458" d="M210.693,338.038a17.052,17.052,0,0,1,3.06,3.569" transform="translate(-195.229 -321.569)" fill="none" stroke="#1e3641" stroke-miterlimit="10" stroke-width="1"/>
              </g>
            </g>
            <g id="Group_295" data-name="Group 295">
              <path id="Path_459" data-name="Path 459" d="M211.148,304.732v2.617s-18.722,2.644-29.631-.33l-.1-3.228S192.053,306.759,211.148,304.732Z" transform="translate(-181.422 -303.523)" fill="#2e2f33"/>
              <path id="Path_460" data-name="Path 460" d="M224.4,308.538c.039-.164,0-5.207,0-5.207l-1.25.9v4.725Z" transform="translate(-198.771 -303.331)" fill="#2c4d60"/>
              <path id="Path_461" data-name="Path 461" d="M189.311,309.319v-5.207h-1.524v5.627h1.219" transform="translate(-184.069 -303.656)" fill="#2c4d60"/>
            </g>
          </g>
        </g>
        <g id="Group_309" data-name="Group 309" transform="translate(5.621)">
          <g id="Group_298" data-name="Group 298">
            <path id="Path_462" data-name="Path 462" d="M190.417,190.592c-1.442-.608-2.638-.622-3.639-1.916-.484-.623-1.346-.77-1.879-1.377-.575-.66-.429-1.562-.717-2.332a16.691,16.691,0,0,0-1.411-2.139,10.08,10.08,0,0,1-.825-4.513c-.063-1.215-.6-.994-1.095-1.948-.579-1.109.441-2.084.928-2.993.624-1.163.131-1.907.32-3.092a9.278,9.278,0,0,1,4.374-6.275,12.009,12.009,0,0,1,5.943-1.265c2.94.171,5.373,1.194,8.376.353,2.153-.6,4.6-.442,4.659,2.081,1.809-.249,1.083,1.579,1.358,2.581.21.762.866,1.127.8,2.051-.064.866-.67,1.218-1.077,1.9.087.041.185.07.273.112.49.239-1.016,1.81-1.092,1.967a6.227,6.227,0,0,0-.3,2.311c-.106,1.622-.106,3.263-.282,4.879-.4,3.651-.9,2.708-2.694,5.936a13.508,13.508,0,0,1-4.566,5.042c-1.1.684-3.762-.712-5.01-.808A7.686,7.686,0,0,1,190.417,190.592Z" transform="translate(-180.678 -162.726)" fill="#eee"/>
          </g>
          <g id="Group_299" data-name="Group 299" transform="translate(2.073 6.428)">
            <path id="Path_463" data-name="Path 463" d="M198.318,175.664c.252.188.44.5.692.691-2.71.692-6.332-.612-8.284-2.627-.38,2.015-.6,3.761-.911,5.776-.317,1.576-.379,3.025-.57,4.6-.063,1.008-.186,3.213-.818,3.213a3.621,3.621,0,0,1-.859-1.411c-1.2-1.171-4.174-.116-3.119,3.408a3.773,3.773,0,0,0,3.316,2.57c1.6.283,1.13.689,2.364,1.922a11.277,11.277,0,0,0,4.364,3.267,5.315,5.315,0,0,1,.148,1.772c-.128,2.994-.364,3.452-3.4,4.178a8.962,8.962,0,0,0,6.544,1.927c2.682-.325,3.095.155,5.011-1.178-1.568-.927-3.022-1.734-3.033-2.722a15.034,15.034,0,0,1,.19-3.529,6.863,6.863,0,0,0,6.446-6.238,46.548,46.548,0,0,0-.029-8.7c-.14-1.733.262-4.164.12-6.057a3.99,3.99,0,0,1-1.878.271A23.681,23.681,0,0,1,198.318,175.664Z" transform="translate(-184.227 -173.728)" fill="#f9cdbb"/>
          </g>
          <g id="Group_305" data-name="Group 305" transform="translate(9.368 9.736)">
            <g id="Group_300" data-name="Group 300">
              <path id="Path_464" data-name="Path 464" d="M196.712,181.507a3.082,3.082,0,0,1,3.837-1.978Z" transform="translate(-196.712 -179.392)" fill="#babebf"/>
            </g>
            <g id="Group_301" data-name="Group 301" transform="translate(10.682 0.325)">
              <path id="Path_465" data-name="Path 465" d="M215,180.058a2.277,2.277,0,0,1,2.93,1.628Z" transform="translate(-214.996 -179.948)" fill="#babebf"/>
            </g>
            <g id="Group_302" data-name="Group 302" transform="translate(3.924 14.56)">
              <path id="Path_466" data-name="Path 466" d="M203.429,204.375s.071.056.2.148a4.028,4.028,0,0,0,.615.338,5.868,5.868,0,0,0,.989.347c.2.041.392.1.6.126s.432.056.651.075a6.208,6.208,0,0,0,.668,0,4.168,4.168,0,0,0,.644-.079,2.937,2.937,0,0,0,1.029-.382,1.336,1.336,0,0,0,.308-.237.806.806,0,0,0,.181-.206c.079-.122.114-.192.114-.192Z" transform="translate(-203.429 -204.313)" fill="#8e3030"/>
            </g>
            <g id="Group_303" data-name="Group 303" transform="translate(10.316 6.464)">
              <path id="Path_467" data-name="Path 467" d="M214.369,191.375a.738.738,0,1,0,.716-.919A.838.838,0,0,0,214.369,191.375Z" transform="translate(-214.369 -190.456)"/>
            </g>
            <g id="Group_304" data-name="Group 304" transform="translate(1.917 6.464)">
              <path id="Path_468" data-name="Path 468" d="M199.994,191.375a.737.737,0,1,0,.713-.919A.837.837,0,0,0,199.994,191.375Z" transform="translate(-199.994 -190.456)"/>
            </g>
            <path id="Path_469" data-name="Path 469" d="M210.331,191.66a27.427,27.427,0,0,0,1.1,5.511h0a4.649,4.649,0,0,1-1.837-.613" transform="translate(-202.069 -184.493)" fill="none" stroke="#e8a07d" stroke-miterlimit="10" stroke-width="1.3"/>
          </g>
          <g id="Group_307" data-name="Group 307" transform="translate(5.415 14.167)">
            <g id="Group_306" data-name="Group 306" transform="translate(2.772)">
              <rect id="Rectangle_487" data-name="Rectangle 487" width="7.816" height="5.867" rx="1.676" fill="none" stroke="#726960" stroke-miterlimit="10" stroke-width="1"/>
              <rect id="Rectangle_488" data-name="Rectangle 488" width="7.816" height="5.867" rx="1.676" transform="translate(10.282)" fill="none" stroke="#726960" stroke-miterlimit="10" stroke-width="1"/>
              <line id="Line_97" data-name="Line 97" x2="2.465" transform="translate(7.816 2.955)" fill="none" stroke="#726960" stroke-miterlimit="10" stroke-width="1"/>
              <line id="Line_98" data-name="Line 98" x2="2.465" transform="translate(7.816 0.995)" fill="none" stroke="#726960" stroke-miterlimit="10" stroke-width="2"/>
            </g>
            <path id="Path_470" data-name="Path 470" d="M190.256,192.482l2.463-1.246V187.9l-2.772,3.9Z" transform="translate(-189.947 -187.361)" fill="#726960"/>
          </g>
          <g id="Group_308" data-name="Group 308" transform="translate(5.415 18.506)">
            <path id="Path_471" data-name="Path 471" d="M195.633,198.506c-1.146-1.2-5.635-4.734-5.687-4-.053.261,3.863,3.484,4.8,4.369a2.247,2.247,0,0,0,.365.314Z" transform="translate(-189.946 -194.403)" fill="#5390a5"/>
            <path id="Path_472" data-name="Path 472" d="M195.99,205.708c-.729,0-5.456-1.8-4.727-.7.417.573,3.946,1.542,4.622,1.749Z" transform="translate(-190.462 -198.665)" fill="#5390a5"/>
            <path id="Path_473" data-name="Path 473" d="M199.771,199.284c1.094-.521,2.345-.781,3.438-1.2a9.282,9.282,0,0,1,3.126-.834,5.843,5.843,0,0,1,3.178,1.408c1.094.833,2.709,1.406,2.709,2.969,0,2.292-2.448,4.9-4.636,5.626a7.766,7.766,0,0,1-6.356-.677c-1.407-.782-2.552-1.46-3.021-3.074-.313-1.095-.261-2.97.677-3.8Z" transform="translate(-193.31 -195.588)" fill="#75b5d1"/>
            <path id="Path_474" data-name="Path 474" d="M203.244,202.689a2.981,2.981,0,0,0,1.081.361,10.3,10.3,0,0,0,1.613.292,20.474,20.474,0,0,0,2.506.137c.653-.034,1.287-.137,1.939-.189a6.8,6.8,0,0,0,1.682-.394" transform="translate(-195.475 -197.848)" fill="none" stroke="#5390a5" stroke-miterlimit="10" stroke-width="1"/>
            <path id="Path_475" data-name="Path 475" d="M201.922,206.244a6.092,6.092,0,0,0,2.746.995c1.012.018,2.009.12,3.021.155a12.246,12.246,0,0,0,2.368-.239,9.773,9.773,0,0,0,2.163-.722" transform="translate(-194.925 -199.326)" fill="none" stroke="#5390a5" stroke-miterlimit="10" stroke-width="1"/>
            <path id="Path_476" data-name="Path 476" d="M203.919,210.538a2.971,2.971,0,0,0,.927.394,7.078,7.078,0,0,0,1.167.377,10.847,10.847,0,0,0,3.33-.1,2.69,2.69,0,0,0,.721-.223c.377-.172.772-.292,1.133-.481" transform="translate(-195.756 -201.097)" fill="none" stroke="#5390a5" stroke-miterlimit="10" stroke-width="1"/>
          </g>
        </g>
        <g id="Group_310" data-name="Group 310" transform="translate(9.273 53.199)">
          <path id="Path_477" data-name="Path 477" d="M186.929,253.786" transform="translate(-186.929 -253.786)" fill="#e094b3"/>
        </g>
        <g id="Group_314" data-name="Group 314" transform="translate(4.513 34.713)">
          <g id="Group_313" data-name="Group 313">
            <g id="Group_312" data-name="Group 312">
              <g id="Group_311" data-name="Group 311">
                <path id="Path_478" data-name="Path 478" d="M188.813,222.43c-1.482.505-3.144.218-4.663.561-.165.037-4.247-.236-5.278,3.288-.543,1.857,1.555,29.828,1.446,34.091-.064.3-.252,12.22-.29,12.438s22.044,2.54,30.547-.391c-.053-.7-.055-12.512-.2-14.114,0,0-.217-10.972-.143-15.379,0-.089,2.245-17.384,2.245-17.384a7.347,7.347,0,0,0-4.336-2.562,20.947,20.947,0,0,0-3.86-.554,15.973,15.973,0,0,1-2.684-.28,11.714,11.714,0,0,1-8.941,1.82s-3.256-.512-3.587-1.258Z" transform="translate(-178.781 -222.143)" fill="#8e6b42"/>
              </g>
              <path id="Path_479" data-name="Path 479" d="M232.006,227.376c-.306,2.458.613,13.471.383,18.79" transform="translate(-200.884 -224.319)" fill="none" stroke="#60482f" stroke-miterlimit="10" stroke-width="1"/>
              <path id="Path_480" data-name="Path 480" d="M194.692,224.218c2.921,3.689,12.5,2.613,13.995,0" transform="translate(-185.396 -223.006)" fill="none" stroke="#60482f" stroke-miterlimit="10" stroke-width="1"/>
            </g>
          </g>
        </g>
      </g>
      <g id="Group_348" data-name="Group 348" transform="translate(116.585 182.835)">
        <g id="Group_347" data-name="Group 347">
          <g id="Group_333" data-name="Group 333">
            <g id="Group_318" data-name="Group 318">
              <g id="Group_317" data-name="Group 317">
                <g id="Group_316" data-name="Group 316">
                  <path id="Path_481" data-name="Path 481" d="M122.687,205.763a32.566,32.566,0,0,0-1.234,3.957c-.932,3.753-7,6.921-4.078,11.436a3.3,3.3,0,0,1,.73-2.056c-1.655,1.794,3.721,6.535,5.081,6.98-.03-.533.148-1.192.078-1.718a5.381,5.381,0,0,0,1.907,1.952c.767.273,1.358-.283,2.3-.166,1.569.2,3.411,1.689,5.075,2.1a27.49,27.49,0,0,0,7.059.785c1.994-.046,3.709-1.353,5.447-1.336-.025.28.084.638.059.916,1.624.077,2.95-1.435,3.883-2.634a2.078,2.078,0,0,0,.085.994c3.8-2.053-.655-6.987-1.226-9.847a3.964,3.964,0,0,1,.889-3.1,5.085,5.085,0,0,0,1.932,2.152c-2.531-1.993-1.01-5.037-1.494-7.787-.428-2.432-2.994-4.626-4.43-6.531-1.977-2.62-5.134-3.962-8.389-4.5-2.689-.447-7.376-.3-9.452,1.738A18.69,18.69,0,0,0,122.687,205.763Z" transform="translate(-116.585 -197.146)" fill="#fff"/>
                </g>
              </g>
            </g>
            <g id="Group_320" data-name="Group 320" transform="translate(7.323 4.607)">
              <g id="Group_319" data-name="Group 319">
                <path id="Path_482" data-name="Path 482" d="M147.672,207.757a15.414,15.414,0,0,1,2.094,7.429c-.063,1.947-.5,3.866-.509,5.818-.015,2.322-.82,5.274-3.1,6.529a18.64,18.64,0,0,1-4.064,1.324c-.416.082-.428,2.47-.591,3.559-.063.412,4.078.4,4.185.935,1.872,9.423-3.741,6.479-5.252,7.138-3.917,1.708-12.469-3.705-7.94-7.7.914-.809,4.035-.36,4.373-1.021.4-.775,1.081-3.438.519-4.075-.194-.222-.194-.222-1.811-1.722a14.889,14.889,0,0,1-3.01-4.067,3.078,3.078,0,0,1-2.756-1.22c-1.352-2.219-.72-3.421,2.012-3.175-.109-1.925-.47-3.924.45-5.741a16.237,16.237,0,0,1,4.058-4.8,8.325,8.325,0,0,1,4.785-1.845C143.985,204.852,146.093,205.031,147.672,207.757Z" transform="translate(-129.119 -205.031)" fill="#f9cdbb"/>
              </g>
            </g>
            <g id="Group_322" data-name="Group 322" transform="translate(15.08 11.942)">
              <g id="Group_321" data-name="Group 321">
                <path id="Path_483" data-name="Path 483" d="M142.4,219.091a1.309,1.309,0,0,0,.169-.082,3.447,3.447,0,0,1,.41-.234c.082-.037.169-.076.252-.123s.2-.07.292-.12a1.393,1.393,0,0,1,.31-.109,2.209,2.209,0,0,1,.318-.1,3.583,3.583,0,0,1,.646-.1,1.363,1.363,0,0,1,.31-.012c.094.009.192.009.283.009a1.018,1.018,0,0,1,.248.033l.2.029c.116.014.189.019.189.019a1.506,1.506,0,0,0-.123-.14c-.041-.042-.093-.1-.158-.151a.868.868,0,0,0-.234-.168,1.848,1.848,0,0,0-.687-.228,1.693,1.693,0,0,0-.415-.025c-.139.019-.282.036-.424.058a3.553,3.553,0,0,0-.4.146,1.26,1.26,0,0,0-.355.2,2.01,2.01,0,0,0-.53.495,1.5,1.5,0,0,0-.239.425C142.417,219.025,142.4,219.091,142.4,219.091Z" transform="translate(-142.397 -217.587)" fill="#babebf"/>
              </g>
            </g>
            <g id="Group_324" data-name="Group 324" transform="translate(23.741 12.834)">
              <g id="Group_323" data-name="Group 323">
                <path id="Path_484" data-name="Path 484" d="M157.222,219.784a1.879,1.879,0,0,0,.2,0c.121,0,.3-.035.494-.033a2.863,2.863,0,0,0,.3,0,2.433,2.433,0,0,1,.327.015,2.127,2.127,0,0,1,.338.029c.113.02.226.038.339.06l.314.109a1.24,1.24,0,0,1,.286.137,1.085,1.085,0,0,1,.261.168c.072.067.15.128.223.186s.117.134.175.189.1.115.138.159c.084.091.137.144.137.144s0-.067-.01-.192a2.06,2.06,0,0,0-.026-.226.857.857,0,0,0-.078-.292c-.051-.1-.109-.207-.177-.32a.988.988,0,0,0-.279-.3,1.216,1.216,0,0,0-.366-.256c-.142-.059-.283-.124-.431-.175l-.448-.055a1.654,1.654,0,0,0-.426.031,2.2,2.2,0,0,0-.721.221,1.934,1.934,0,0,0-.418.282C157.275,219.734,157.222,219.784,157.222,219.784Z" transform="translate(-157.222 -219.113)" fill="#babebf"/>
              </g>
            </g>
            <g id="Group_330" data-name="Group 330" transform="translate(15.574 16.857)">
              <g id="Group_326" data-name="Group 326" transform="translate(8.094 0.109)">
                <g id="Group_325" data-name="Group 325">
                  <path id="Path_485" data-name="Path 485" d="M157.1,227.155c-.043.537.231.977.609.982s.727-.425.771-.965-.234-.979-.615-.986S157.145,226.617,157.1,227.155Z" transform="translate(-157.096 -226.186)" fill="#141210"/>
                </g>
              </g>
              <g id="Group_328" data-name="Group 328">
                <g id="Group_327" data-name="Group 327">
                  <path id="Path_486" data-name="Path 486" d="M143.246,226.966c-.043.539.23.98.611.988s.726-.429.768-.967-.233-.979-.611-.989S143.29,226.431,143.246,226.966Z" transform="translate(-143.241 -225.999)" fill="#141210"/>
                </g>
              </g>
              <g id="Group_329" data-name="Group 329" transform="translate(2.286 6.331)">
                <path id="Path_487" data-name="Path 487" d="M151.746,237.179a2,2,0,0,1-.086.219.923.923,0,0,1-.14.243,1.228,1.228,0,0,1-.245.277,1.955,1.955,0,0,1-.834.441,2.266,2.266,0,0,1-.525.071,3.5,3.5,0,0,1-.542-.029,4.126,4.126,0,0,1-.521-.137,2.891,2.891,0,0,1-.469-.2,2.955,2.955,0,0,1-.724-.526,2.273,2.273,0,0,1-.4-.491,2.229,2.229,0,0,1-.109-.209Z" transform="translate(-147.154 -236.836)" fill="#8e3030"/>
              </g>
              <path id="Path_488" data-name="Path 488" d="M152.2,232.058c.475.138,1.428.226,1.7-.278a.776.776,0,0,0-.382-1,1.032,1.032,0,0,1-.544-.916c0-.554-.054-1.119-.041-1.674" transform="translate(-146.967 -226.909)" fill="none" stroke="#e8a07d" stroke-miterlimit="10" stroke-width="1"/>
            </g>
            <g id="Group_331" data-name="Group 331" transform="translate(10.061 16.821)">
              <path id="Path_489" data-name="Path 489" d="M138.964,230.748c-1-1.049-5.113-5.386-5.158-4.747a49.708,49.708,0,0,0,4.382,5.067,2.018,2.018,0,0,0,.32.273Z" transform="translate(-133.805 -225.938)" fill="#5390a5"/>
              <path id="Path_490" data-name="Path 490" d="M139.236,236.6c-.639,0-5.018-3.587-4.379-2.627a26.407,26.407,0,0,0,4.288,3.547Z" transform="translate(-134.216 -229.209)" fill="#5390a5"/>
              <path id="Path_491" data-name="Path 491" d="M142.715,232.3c.959-.457,2.054-.685,3.012-1.05a8.134,8.134,0,0,1,2.739-.731,5.127,5.127,0,0,1,2.785,1.233c.958.731,2.374,1.233,2.374,2.6,0,2.009-2.146,4.292-4.063,4.931a6.814,6.814,0,0,1-5.57-.594c-1.232-.685-2.236-1.278-2.647-2.693-.274-.96-.228-2.6.594-3.332Z" transform="translate(-136.878 -227.841)" fill="#75b5d1"/>
              <path id="Path_492" data-name="Path 492" d="M145.758,235.281a2.621,2.621,0,0,0,.948.315,9.04,9.04,0,0,0,1.413.255,17.967,17.967,0,0,0,2.2.121c.571-.031,1.128-.121,1.7-.166a6.013,6.013,0,0,0,1.474-.346" transform="translate(-138.775 -229.822)" fill="none" stroke="#5390a5" stroke-miterlimit="10" stroke-width="1"/>
              <path id="Path_493" data-name="Path 493" d="M144.6,238.395a5.358,5.358,0,0,0,2.406.873c.887.014,1.759.105,2.647.135a10.669,10.669,0,0,0,2.076-.211,8.406,8.406,0,0,0,1.895-.632" transform="translate(-138.293 -231.117)" fill="none" stroke="#5390a5" stroke-miterlimit="10" stroke-width="1"/>
              <path id="Path_494" data-name="Path 494" d="M146.351,242.158a2.568,2.568,0,0,0,.811.345,6.2,6.2,0,0,0,1.023.332,9.545,9.545,0,0,0,2.917-.091,2.371,2.371,0,0,0,.632-.2c.331-.15.677-.255.993-.421" transform="translate(-139.021 -232.669)" fill="none" stroke="#5390a5" stroke-miterlimit="10" stroke-width="1"/>
            </g>
            <g id="Group_332" data-name="Group 332" transform="translate(9.958 13.073)">
              <circle id="Ellipse_32" data-name="Ellipse 32" cx="4.708" cy="4.708" r="4.708" transform="translate(1.249 0.129) rotate(-0.774)" fill="none" stroke="#726960" stroke-miterlimit="10" stroke-width="0.6"/>
              <circle id="Ellipse_33" data-name="Ellipse 33" cx="4.708" cy="4.708" r="4.708" transform="translate(12.018 0.131) rotate(-0.795)" fill="none" stroke="#726960" stroke-miterlimit="10" stroke-width="0.6"/>
              <line id="Line_99" data-name="Line 99" x2="1.356" transform="translate(10.727 4.773)" fill="none" stroke="#726960" stroke-miterlimit="10" stroke-width="0.6"/>
              <line id="Line_100" data-name="Line 100" x1="1.506" y2="0.567" transform="translate(0 3.441)" fill="none" stroke="#726960" stroke-linecap="round" stroke-linejoin="round" stroke-width="0.6"/>
            </g>
            <path id="Path_495" data-name="Path 495" d="M139.038,205.638c-.39,3.122,3.709,5.659,6.636,6.051a9.9,9.9,0,0,1-1.757-3.123,5.817,5.817,0,0,0,4.685,3.514,4.119,4.119,0,0,0-.781-1.952c1.366,2.928,2.732,4.88,2.928,8.2,4.684-6.636-.2-16.2-7.807-16.4-4.879-.2-8.517.71-11.054,5.2a7.831,7.831,0,0,0,1.88,10.416c-.2-1.952-.585-4.489.2-6.442.781-2.343,3.513-3.513,5.075-5.465Z" transform="translate(-122.449 -199.125)" fill="#eee"/>
          </g>
          <g id="Group_342" data-name="Group 342" transform="translate(1.309 51.313)">
            <g id="Group_340" data-name="Group 340" transform="translate(3.525)">
              <path id="Path_496" data-name="Path 496" d="M146.85,285.145l-.36,7.823a49.245,49.245,0,0,0,1.5,8.342c1.065,3.449-6.815,6.933-7.688,6.921s-10.749-3.324-10.749-3.324l-3.682-5.914,1.091-3.8-.094-1.855s-.752-4.27-.023-6.688S146.85,285.145,146.85,285.145Z" transform="translate(-125.281 -284.976)" fill="#f9cdbb"/>
              <g id="Group_336" data-name="Group 336" transform="translate(0 25.91)">
                <g id="Group_334" data-name="Group 334">
                  <path id="Path_497" data-name="Path 497" d="M138.119,411.2a67.824,67.824,0,0,1-6.946-4.3c-1.622-1.453,3.162-77.579,3.162-77.579H124.86l.3,13.3s.782,26.6,0,31.037.176,26.864.35,34.688v.869C129.444,410.864,134.021,411.85,138.119,411.2Z" transform="translate(-124.86 -329.325)" fill="#f9cdbb"/>
                </g>
                <g id="Group_335" data-name="Group 335" transform="translate(0.653 79.898)">
                  <path id="Path_498" data-name="Path 498" d="M138.583,468.063c-4.1.648-8.675-.338-12.606-1.979v2.526s15.848,4.081,17.045,2.308C143.022,470.918,143.624,470.067,138.583,468.063Z" transform="translate(-125.977 -466.084)" fill="#394042"/>
                </g>
              </g>
              <g id="Group_339" data-name="Group 339" transform="translate(13.258 24.335)">
                <g id="Group_337" data-name="Group 337">
                  <path id="Path_499" data-name="Path 499" d="M160.813,408.5c-2.266-1.322-5.421-3.016-6.631-3.863-2.6-1.823,5.153-76.445,5.153-76.445l-11.781-1.563.3,13.3s.782,26.6,0,31.038.175,26.862.345,34.688v.869C152.136,408.171,156.716,409.151,160.813,408.5Z" transform="translate(-147.553 -326.629)" fill="#f9cdbb"/>
                </g>
                <g id="Group_338" data-name="Group 338" transform="translate(0.651 79.898)">
                  <path id="Path_500" data-name="Path 500" d="M161.276,465.361c-4.1.65-8.676-.329-12.609-1.974v2.521s13.977,3.867,17.1,2.039C165.772,467.947,166.467,467.267,161.276,465.361Z" transform="translate(-148.667 -463.387)" fill="#394042"/>
                </g>
              </g>
            </g>
            <g id="Group_341" data-name="Group 341" transform="translate(0 8.028)">
              <path id="Path_501" data-name="Path 501" d="M119.029,315.024c1.07-9.52,3.221-13.157,3.913-14.109a4.225,4.225,0,0,1,.791-1.768c12.854,2.785,17.669.492,19.729-.429a13.822,13.822,0,0,1,1.218,2s4,9.018,4.189,15.089-1.442,21.56-2.916,37.356l-3.143,39.857a17.354,17.354,0,0,1-7.022-.007l-.953-71.876-1.156,1.029-4.208,72.31a10.055,10.055,0,0,1-7.531.072s-.674-30.344-.487-34.714C121.454,359.839,117.962,324.513,119.029,315.024Z" transform="translate(-118.826 -298.717)" fill="#9b4559"/>
              <path id="Path_502" data-name="Path 502" d="M146.937,301.3c-7.085,3.04-16.076,1.737-21.066.689" transform="translate(-121.755 -299.791)" fill="none" stroke="#773f4e" stroke-miterlimit="10" stroke-width="1.5"/>
              <path id="Path_503" data-name="Path 503" d="M147.062,304.752c0,4.04.863,10.528-2.164,13.412" transform="translate(-129.666 -301.226)" fill="none" stroke="#773f4e" stroke-miterlimit="10" stroke-width="1.5"/>
              <path id="Path_504" data-name="Path 504" d="M145.685,305.247c-.577,3.751-.431,7.789-1.009,11.681a46.892,46.892,0,0,0-.289,7.789" transform="translate(-129.444 -301.432)" fill="none" stroke="#773f4e" stroke-miterlimit="10" stroke-width="1.5"/>
              <path id="Path_505" data-name="Path 505" d="M146.861,334.127c-2.6,1.155-3.461,2.453-5.913,4.182" transform="translate(-128.024 -313.44)" fill="none" stroke="#773f4e" stroke-miterlimit="10" stroke-width="1.5"/>
              <path id="Path_506" data-name="Path 506" d="M126.6,304.012a9.925,9.925,0,0,1-4.9,6.634" transform="translate(-120.019 -300.919)" fill="none" stroke="#773f4e" stroke-miterlimit="10" stroke-width="1.5"/>
              <path id="Path_507" data-name="Path 507" d="M163.465,308.83c-1.441.287-4.845-2.521-5.238-6.05" transform="translate(-135.208 -300.406)" fill="none" stroke="#773f4e" stroke-miterlimit="10" stroke-width="1.5"/>
            </g>
          </g>
          <g id="Group_346" data-name="Group 346" transform="translate(4.523 31.618)">
            <g id="Group_344" data-name="Group 344" transform="translate(0.37)">
              <g id="Group_343" data-name="Group 343" transform="translate(12.788 4.226)">
                <path id="Path_508" data-name="Path 508" d="M146.848,258.5h.005l0,0Z" transform="translate(-146.848 -258.499)" fill="#8a82c3"/>
              </g>
              <path id="Path_509" data-name="Path 509" d="M126.728,253.533l.437-1.816,4.155-.293,2.222-.158s.124,4.154,3.967,4.227c.083,0,.159,0,.237,0l0,0,0,0c4.236-.049,3.4-3.592,3.4-3.592l2.618.432,2.736.45s.108,7.416,1.3,11.8-.884,5.763-1.158,6.345c0,0-.255,5.3-.538,8.03,0,0-6.025,4.258-19.827.464-.389-5.35-.946-19.347-1.261-21C124.569,256.026,126.728,253.533,126.728,253.533Z" transform="translate(-124.959 -251.266)" fill="#81bbc1"/>
            </g>
            <g id="Group_345" data-name="Group 345" transform="translate(0 0.312)">
              <path id="Path_510" data-name="Path 510" d="M125.032,260.28c-.651.347,5.522,22.9,7.187,23.822,3.107,1.709,4.54-1.31,2.561-8.255-1.364-4.79-4-13.362-4.586-18.311Z" transform="translate(-124.6 -254.185)" fill="#f9cdbb"/>
              <path id="Path_511" data-name="Path 511" d="M127.532,251.86c-.584-.177-1.241.017-1.954.844-1.275,1.479-1.349,3.589-1.192,5.439a27.81,27.81,0,0,0,.769,4.115c3.579-.315,3.532-.7,6.9-2.582-.689-1.591-1.5-3.13-2.148-4.738C129.43,253.759,128.6,252.187,127.532,251.86Z" transform="translate(-124.326 -251.8)" fill="#9ed5d8"/>
            </g>
          </g>
        </g>
        <path id="Path_512" data-name="Path 512" d="M136.734,285.9c1.115,1.7,5.557-1.269,6.828-2.007a39.287,39.287,0,0,0,6.051-4.611c1.861-1.636,3.656-3.351,5.408-5.1.009-.011.018-.019.027-.027.363-.362,1.76-2.322,2.291-2.356.739-.047,1.076.363,1.78-.157.969-.623,2.475-2.752,3.346-3.808a11.423,11.423,0,0,1,1.395-.268,4.86,4.86,0,0,0,1.934-.229c.535-.329-.482-.621-1.107-.679a7.539,7.539,0,0,1-2.754-.475c.223-.6,5.006.632,4.9-.459.126-.341-1.543-.54-2.2-.636-.846-.066-1.652-.321-2.459-.418,1.222-.521,4.886.672,4.882-.144-.02-.614-3.286-1.037-4.536-1.077,1.51-.48,3.268.371,4.266-.23.143-.518-2.619-1.1-3.538-.944a5.327,5.327,0,0,0-2.305.837,22.359,22.359,0,0,0-5.145,6.135q-3.014,1.886-6.016,3.8-1.9,1.21-3.8,2.426a43.862,43.862,0,0,0-6.086,4.114C138.52,280.833,135.559,284.107,136.734,285.9Zm16.12-13.338a1,1,0,0,1-.092.205A1.2,1.2,0,0,0,152.854,272.562Z" transform="translate(-124.85 -224.213)" fill="#f9cdbb"/>
      </g>
      <g id="Group_411" data-name="Group 411" transform="translate(182.215 187.861)">
        <g id="Group_406" data-name="Group 406" transform="translate(5.77 17.069)">
          <path id="Path_565" data-name="Path 565" d="M238.8,236.687a2.475,2.475,0,0,1,.6-1.722,10.95,10.95,0,0,1,5.281,3.266c1.347,2.086-3.978.713-5.02-.366Z" transform="translate(-238.797 -234.965)" fill="#9d9e9e"/>
        </g>
        <g id="Group_408" data-name="Group 408" transform="translate(0.993)">
          <g id="Group_407" data-name="Group 407">
            <path id="Path_566" data-name="Path 566" d="M243.873,210.992a9.823,9.823,0,0,1-3.069,1.83c-.263-.778,5.388-3.552,4.421-4.535-.153-.437-1.939.761-2.661,1.214-.876.64-1.863,1.064-2.731,1.637.774-1.521,5.3-3.407,4.644-4.2-.507-.58-4.029,1.725-5.284,2.723,1.09-1.728,3.484-2.355,3.982-3.776-.273-.627-3.434,1.108-4.208,2.026a6.968,6.968,0,0,0-1.578,2.733,29.156,29.156,0,0,0-.123,10.285c-1.56,4.745-3.109,9.494-4.608,14.257a34.038,34.038,0,0,0-1.817,6.99c-.339,2.368-.622,4.39,1.827,5.512,1.289.589,3.579-1.967,4.229-3.747a38.177,38.177,0,0,0,2.352-8.047c.511-3.165.9-6.352,1.2-9.542.063-.659-.135-3.738.356-4.212.682-.661,1.335-.538,1.608-1.636.45-1.416.218-4.752.224-6.508a15.137,15.137,0,0,1,1.149-1.426,6.354,6.354,0,0,0,1.7-1.832C245.757,209.967,244.528,210.528,243.873,210.992Z" transform="translate(-230.62 -205.748)" fill="#f9cdbb"/>
          </g>
        </g>
        <g id="Group_410" data-name="Group 410" transform="translate(0 17.069)">
          <g id="Group_409" data-name="Group 409">
            <path id="Path_567" data-name="Path 567" d="M240.856,238.76c-1.2.17-6.946-2.006-5.563-3.795h0c-1.092.584-.97,1.687-1.038,2.659a7.418,7.418,0,0,0-.291,1.205c-.3.745-.741,1.68-1.135,2.474a51.287,51.287,0,0,0-3.4,9.4c-.486,2.595-.97,5.191.291,7.556,1.364,2.777,3.5,2.684,5.947.913C238.521,257.072,240.856,238.76,240.856,238.76Z" transform="translate(-228.921 -234.965)" fill="#cecece"/>
          </g>
        </g>
      </g>
      <g id="Group_413" data-name="Group 413" transform="translate(226.978 207.309)">
        <g id="Group_412" data-name="Group 412">
          <path id="Path_568" data-name="Path 568" d="M307.612,243.436a7.991,7.991,0,0,0,2.928.071c-.125-.661-5.277-.365-4.982-1.456-.067-.374,1.69-.237,2.388-.205.884.106,1.759.009,2.61.068-1.166-.775-5.159-.3-5.009-1.13.127-.618,3.573-.391,4.868-.185-1.473-.794-3.435-.278-4.362-1.091-.058-.557,2.9-.592,3.82-.248a5.686,5.686,0,0,1,2.227,1.315,23.853,23.853,0,0,1,4.231,7.293q4.538,4.137,9.032,8.321a27.957,27.957,0,0,1,4.113,4.261c1.2,1.555,2.212,2.884.917,4.669-.685.941-3.348.039-4.53-.971a31.186,31.186,0,0,1-4.92-4.8c-1.639-2.054-3.2-4.174-4.7-6.327-.31-.445-1.407-2.723-1.95-2.864-.752-.2-1.17.155-1.808-.519-.891-.83-2.07-3.306-2.78-4.556a12.413,12.413,0,0,0-1.394-.556,5.2,5.2,0,0,1-1.957-.62C305.856,243.465,306.957,243.369,307.612,243.436Z" transform="translate(-305.542 -239.038)" fill="#f9cdbb"/>
        </g>
      </g>
    </g>
    <g id="Group_93" data-name="Group 93" transform="translate(932.258 339.287)">
      <path id="Path_298" data-name="Path 298" d="M1685.249,568.631c0-.744,8.964-25.518,2.9-41.466-4.244-11.167-4.913-24.567-4.913-24.567s-8.263,11.837-2.68,29.927c3.437,11.134,4.839,14.219,5.136,17.494s-1.34,19.654-1.34,19.654Z" transform="translate(-1676.092 -501.63)" fill="#9cd499"/>
      <g id="Group_87" data-name="Group 87" transform="translate(2.264 0.692)">
        <path id="Path_299" data-name="Path 299" d="M1683.465,569.024a.279.279,0,0,1-.108-.022.276.276,0,0,1-.166-.281c.017-.163,1.632-16.389,1.34-19.6-.194-2.137-.854-4.157-2.3-8.583-.741-2.267-1.663-5.089-2.825-8.855a39.753,39.753,0,0,1-.757-21.9,27.738,27.738,0,0,1,3.474-8.267.275.275,0,0,1,.5.144c.006.134.717,13.487,4.9,24.483,2.266,5.964,2.721,13.828,1.353,23.375A116.51,116.51,0,0,1,1685,566.436c-.19.634-.353,1.182-.365,1.282a.243.243,0,0,1-.066.167l-.893,1.042A.276.276,0,0,1,1683.465,569.024Zm-1.335-66.475a30.226,30.226,0,0,0-2.956,7.4,39.211,39.211,0,0,0,.757,21.571c1.161,3.762,2.082,6.581,2.822,8.846,1.459,4.467,2.125,6.505,2.326,8.7.26,2.866-.918,15.372-1.255,18.835l.272-.318c.032-.164.128-.49.373-1.309,5.176-17.305,6.029-30.743,2.534-39.941C1683.409,516.877,1682.363,505.7,1682.13,502.549Z" transform="translate(-1677.466 -501.398)" fill="#74b570"/>
      </g>
      <path id="Path_300" data-name="Path 300" d="M1715.345,567.914c-1.34-27.545,5.211-42.583,18.611-54.494s14-15.038,14-15.038-2.084,23.227-9.827,31.267-19.058,14-20.7,18.165-1.042,18.165-1.042,18.165l-1.042,2.531Z" transform="translate(-1704.253 -498.382)" fill="#9cd499"/>
      <path id="Path_301" data-name="Path 301" d="M1708.768,711.205c-.149-.447,2.829-25.758,13.7-27.247s13.4,1.042,20.845-.149a46.48,46.48,0,0,0,9.38-2.531s-2.82,7.176-12.507,10.125c-6.849,2.084-15.782-1.34-20.994-.447s-7.891,12.06-7.891,12.06l-.893,5.807Z" transform="translate(-1699.314 -639.291)" fill="#9cd499"/>
      <g id="Group_88" data-name="Group 88" transform="translate(10.529 8.509)">
        <path id="Path_302" data-name="Path 302" d="M1713.88,595.109a.275.275,0,0,1-.274-.25c-.016-.178-1.559-17.96,5.989-31.575,3.9-7.033,8.155-11.108,12.272-15.05,3.835-3.672,7.458-7.14,10.2-12.634a.276.276,0,0,1,.493.246c-2.79,5.579-6.446,9.079-10.316,12.785-4.088,3.913-8.314,7.959-12.172,14.919-7.464,13.464-5.939,31.081-5.922,31.257a.276.276,0,0,1-.249.3Z" transform="translate(-1713.465 -535.449)" fill="#74b570"/>
      </g>
      <g id="Group_89" data-name="Group 89" transform="translate(9.923 44.695)">
        <path id="Path_303" data-name="Path 303" d="M1711.1,712.975a.272.272,0,0,1-.077-.011.275.275,0,0,1-.187-.341c2.85-9.824,6.121-15.555,10.294-18.037,3.73-2.219,7.585-1.538,11.667-.817,1,.176,2.032.359,3.055.493,8.87,1.164,13.2-.992,13.238-1.014a.276.276,0,0,1,.253.49c-.18.093-4.5,2.26-13.563,1.071-1.035-.136-2.074-.319-3.079-.5-3.978-.7-7.735-1.367-11.29.748-4.045,2.406-7.237,8.036-10.046,17.717A.276.276,0,0,1,1711.1,712.975Z" transform="translate(-1710.828 -693.073)" fill="#74b570"/>
      </g>
      <g id="Group_90" data-name="Group 90" transform="translate(24.143 20.42)">
        <path id="Path_304" data-name="Path 304" d="M1773.043,593.318a.276.276,0,0,1-.169-.494,33.366,33.366,0,0,1,12.7-5.487.276.276,0,0,1,.1.541,32.749,32.749,0,0,0-12.465,5.382A.275.275,0,0,1,1773.043,593.318Z" transform="translate(-1772.767 -587.333)" fill="#74b570"/>
      </g>
      <g id="Group_91" data-name="Group 91" transform="translate(15.73 26.674)">
        <path id="Path_305" data-name="Path 305" d="M1736.4,626.29a.276.276,0,0,1-.237-.416c3.877-6.538,8.418-8.186,18.319-11.289a.275.275,0,0,1,.165.526c-9.761,3.06-14.236,4.68-18.01,11.045A.276.276,0,0,1,1736.4,626.29Z" transform="translate(-1736.123 -614.572)" fill="#74b570"/>
      </g>
      <path id="Path_306" data-name="Path 306" d="M1681.2,790.183h-6.649a4.892,4.892,0,0,1-4.805-3.974L1667.6,775h20.547l-2.144,11.213A4.892,4.892,0,0,1,1681.2,790.183Z" transform="translate(-1667.602 -711.494)" fill="#f39892"/>
      <g id="Group_92" data-name="Group 92" transform="translate(0.119 65.259)">
        <path id="Path_307" data-name="Path 307" d="M1688.028,783.751h-19.356a.551.551,0,0,1,0-1.1h19.356a.551.551,0,1,1,0,1.1Z" transform="translate(-1668.121 -782.649)" fill="#d54a41"/>
      </g>
    </g>
  </g>
</svg>
